<?xml version="1.0" encoding="UTF-8" standalone="no"?>
<!-- Created with Inkscape (http://www.inkscape.org/) -->

<svg
   xml:space="preserve"
   id="svg5"
   version="1.1"
   viewBox="0 0 126.45139 34.265823"
   height="34.265823mm"
   width="126.45139mm"
   sodipodi:docname="avatar teste.svg"
   inkscape:version="1.2 (dc2aedaf03, 2022-05-15)"
   inkscape:export-filename="avatar-logo mask.png"
   inkscape:export-xdpi="192"
   inkscape:export-ydpi="192"
   xmlns:inkscape="http://www.inkscape.org/namespaces/inkscape"
   xmlns:sodipodi="http://sodipodi.sourceforge.net/DTD/sodipodi-0.dtd"
   xmlns="http://www.w3.org/2000/svg"
   xmlns:svg="http://www.w3.org/2000/svg"><sodipodi:namedview
     id="namedview7"
     pagecolor="#ffffff"
     bordercolor="#666666"
     borderopacity="1.0"
     inkscape:showpageshadow="2"
     inkscape:pageopacity="0.0"
     inkscape:pagecheckerboard="0"
     inkscape:deskcolor="#d1d1d1"
     inkscape:document-units="mm"
     showgrid="false"
     inkscape:zoom="0.35355339"
     inkscape:cx="469.5189"
     inkscape:cy="421.43564"
     inkscape:window-width="1920"
     inkscape:window-height="1017"
     inkscape:window-x="-8"
     inkscape:window-y="-8"
     inkscape:window-maximized="1"
     inkscape:current-layer="layer1" /><defs
     id="defs2"><inkscape:path-effect
       effect="powermask"
       id="path-effect953"
       is_visible="true"
       lpeversion="1"
       uri="#mask-powermask-path-effect953"
       invert="false"
       hide_mask="false"
       background="true"
       background_color="#ffffffff" /><inkscape:path-effect
       effect="powerclip"
       id="path-effect8301"
       is_visible="true"
       lpeversion="1"
       inverse="true"
       flatten="false"
       hide_clip="false"
       message="Usar a regra de preenchimento par ou ímpar na caixa de diálogo &lt;b&gt;preenchimento e contorno&lt;/b&gt; se nenhum resultado nivelar após converter o clipe em caminhos." /><inkscape:path-effect
       effect="powerclip"
       id="path-effect7945"
       is_visible="true"
       lpeversion="1"
       inverse="true"
       flatten="false"
       hide_clip="false"
       message="Usar a regra de preenchimento par ou ímpar na caixa de diálogo &lt;b&gt;preenchimento e contorno&lt;/b&gt; se nenhum resultado nivelar após converter o clipe em caminhos." /><filter
       id="mask-powermask-path-effect2992_inverse"
       inkscape:label="filtermask-powermask-path-effect2992"
       style="color-interpolation-filters:sRGB"
       height="100"
       width="100"
       x="-50"
       y="-50"><feColorMatrix
         id="mask-powermask-path-effect2992_primitive1"
         values="1"
         type="saturate"
         result="fbSourceGraphic" /><feColorMatrix
         id="mask-powermask-path-effect2992_primitive2"
         values="-1 0 0 0 1 0 -1 0 0 1 0 0 -1 0 1 0 0 0 1 0 "
         in="fbSourceGraphic" /></filter><filter
       id="mask-powermask-path-effect3480_inverse"
       inkscape:label="filtermask-powermask-path-effect3480"
       style="color-interpolation-filters:sRGB"
       height="100"
       width="100"
       x="-50"
       y="-50"><feColorMatrix
         id="mask-powermask-path-effect3480_primitive1"
         values="1"
         type="saturate"
         result="fbSourceGraphic" /><feColorMatrix
         id="mask-powermask-path-effect3480_primitive2"
         values="-1 0 0 0 1 0 -1 0 0 1 0 0 -1 0 1 0 0 0 1 0 "
         in="fbSourceGraphic" /></filter><filter
       id="mask-powermask-path-effect4926_inverse"
       inkscape:label="filtermask-powermask-path-effect4926"
       style="color-interpolation-filters:sRGB"
       height="100"
       width="100"
       x="-50"
       y="-50"><feColorMatrix
         id="mask-powermask-path-effect4926_primitive1"
         values="1"
         type="saturate"
         result="fbSourceGraphic" /><feColorMatrix
         id="mask-powermask-path-effect4926_primitive2"
         values="-1 0 0 0 1 0 -1 0 0 1 0 0 -1 0 1 0 0 0 1 0 "
         in="fbSourceGraphic" /></filter><filter
       id="mask-powermask-path-effect6195_inverse"
       inkscape:label="filtermask-powermask-path-effect6195"
       style="color-interpolation-filters:sRGB"
       height="100"
       width="100"
       x="-50"
       y="-50"><feColorMatrix
         id="mask-powermask-path-effect6195_primitive1"
         values="1"
         type="saturate"
         result="fbSourceGraphic" /><feColorMatrix
         id="mask-powermask-path-effect6195_primitive2"
         values="-1 0 0 0 1 0 -1 0 0 1 0 0 -1 0 1 0 0 0 1 0 "
         in="fbSourceGraphic" /></filter><filter
       id="mask-powermask-path-effect6251_inverse"
       inkscape:label="filtermask-powermask-path-effect6251"
       style="color-interpolation-filters:sRGB"
       height="100"
       width="100"
       x="-50"
       y="-50"><feColorMatrix
         id="mask-powermask-path-effect6251_primitive1"
         values="1"
         type="saturate"
         result="fbSourceGraphic" /><feColorMatrix
         id="mask-powermask-path-effect6251_primitive2"
         values="-1 0 0 0 1 0 -1 0 0 1 0 0 -1 0 1 0 0 0 1 0 "
         in="fbSourceGraphic" /></filter><filter
       id="mask-powermask-path-effect6277_inverse"
       inkscape:label="filtermask-powermask-path-effect6277"
       style="color-interpolation-filters:sRGB"
       height="100"
       width="100"
       x="-50"
       y="-50"><feColorMatrix
         id="mask-powermask-path-effect6277_primitive1"
         values="1"
         type="saturate"
         result="fbSourceGraphic" /><feColorMatrix
         id="mask-powermask-path-effect6277_primitive2"
         values="-1 0 0 0 1 0 -1 0 0 1 0 0 -1 0 1 0 0 0 1 0 "
         in="fbSourceGraphic" /></filter><filter
       id="mask-powermask-path-effect6287_inverse"
       inkscape:label="filtermask-powermask-path-effect6287"
       style="color-interpolation-filters:sRGB"
       height="100"
       width="100"
       x="-50"
       y="-50"><feColorMatrix
         id="mask-powermask-path-effect6287_primitive1"
         values="1"
         type="saturate"
         result="fbSourceGraphic" /><feColorMatrix
         id="mask-powermask-path-effect6287_primitive2"
         values="-1 0 0 0 1 0 -1 0 0 1 0 0 -1 0 1 0 0 0 1 0 "
         in="fbSourceGraphic" /></filter><filter
       id="mask-powermask-path-effect6373_inverse"
       inkscape:label="filtermask-powermask-path-effect6373"
       style="color-interpolation-filters:sRGB"
       height="100"
       width="100"
       x="-50"
       y="-50"><feColorMatrix
         id="mask-powermask-path-effect6373_primitive1"
         values="1"
         type="saturate"
         result="fbSourceGraphic" /><feColorMatrix
         id="mask-powermask-path-effect6373_primitive2"
         values="-1 0 0 0 1 0 -1 0 0 1 0 0 -1 0 1 0 0 0 1 0 "
         in="fbSourceGraphic" /></filter><filter
       id="mask-powermask-path-effect6449_inverse"
       inkscape:label="filtermask-powermask-path-effect6449"
       style="color-interpolation-filters:sRGB"
       height="100"
       width="100"
       x="-50"
       y="-50"><feColorMatrix
         id="mask-powermask-path-effect6449_primitive1"
         values="1"
         type="saturate"
         result="fbSourceGraphic" /><feColorMatrix
         id="mask-powermask-path-effect6449_primitive2"
         values="-1 0 0 0 1 0 -1 0 0 1 0 0 -1 0 1 0 0 0 1 0 "
         in="fbSourceGraphic" /></filter><filter
       id="mask-powermask-path-effect7486_inverse"
       inkscape:label="filtermask-powermask-path-effect7486"
       style="color-interpolation-filters:sRGB"
       height="100"
       width="100"
       x="-50"
       y="-50"><feColorMatrix
         id="mask-powermask-path-effect7486_primitive1"
         values="1"
         type="saturate"
         result="fbSourceGraphic" /><feColorMatrix
         id="mask-powermask-path-effect7486_primitive2"
         values="-1 0 0 0 1 0 -1 0 0 1 0 0 -1 0 1 0 0 0 1 0 "
         in="fbSourceGraphic" /></filter><filter
       id="mask-powermask-path-effect7491_inverse"
       inkscape:label="filtermask-powermask-path-effect7491"
       style="color-interpolation-filters:sRGB"
       height="100"
       width="100"
       x="-50"
       y="-50"><feColorMatrix
         id="mask-powermask-path-effect7491_primitive1"
         values="1"
         type="saturate"
         result="fbSourceGraphic" /><feColorMatrix
         id="mask-powermask-path-effect7491_primitive2"
         values="-1 0 0 0 1 0 -1 0 0 1 0 0 -1 0 1 0 0 0 1 0 "
         in="fbSourceGraphic" /></filter><filter
       id="mask-powermask-path-effect7496_inverse"
       inkscape:label="filtermask-powermask-path-effect7496"
       style="color-interpolation-filters:sRGB"
       height="100"
       width="100"
       x="-50"
       y="-50"><feColorMatrix
         id="mask-powermask-path-effect7496_primitive1"
         values="1"
         type="saturate"
         result="fbSourceGraphic" /><feColorMatrix
         id="mask-powermask-path-effect7496_primitive2"
         values="-1 0 0 0 1 0 -1 0 0 1 0 0 -1 0 1 0 0 0 1 0 "
         in="fbSourceGraphic" /></filter><filter
       id="mask-powermask-path-effect7501_inverse"
       inkscape:label="filtermask-powermask-path-effect7501"
       style="color-interpolation-filters:sRGB"
       height="100"
       width="100"
       x="-50"
       y="-50"><feColorMatrix
         id="mask-powermask-path-effect7501_primitive1"
         values="1"
         type="saturate"
         result="fbSourceGraphic" /><feColorMatrix
         id="mask-powermask-path-effect7501_primitive2"
         values="-1 0 0 0 1 0 -1 0 0 1 0 0 -1 0 1 0 0 0 1 0 "
         in="fbSourceGraphic" /></filter><filter
       id="mask-powermask-path-effect7506_inverse"
       inkscape:label="filtermask-powermask-path-effect7506"
       style="color-interpolation-filters:sRGB"
       height="100"
       width="100"
       x="-50"
       y="-50"><feColorMatrix
         id="mask-powermask-path-effect7506_primitive1"
         values="1"
         type="saturate"
         result="fbSourceGraphic" /><feColorMatrix
         id="mask-powermask-path-effect7506_primitive2"
         values="-1 0 0 0 1 0 -1 0 0 1 0 0 -1 0 1 0 0 0 1 0 "
         in="fbSourceGraphic" /></filter><filter
       id="mask-powermask-path-effect7511_inverse"
       inkscape:label="filtermask-powermask-path-effect7511"
       style="color-interpolation-filters:sRGB"
       height="100"
       width="100"
       x="-50"
       y="-50"><feColorMatrix
         id="mask-powermask-path-effect7511_primitive1"
         values="1"
         type="saturate"
         result="fbSourceGraphic" /><feColorMatrix
         id="mask-powermask-path-effect7511_primitive2"
         values="-1 0 0 0 1 0 -1 0 0 1 0 0 -1 0 1 0 0 0 1 0 "
         in="fbSourceGraphic" /></filter><filter
       id="mask-powermask-path-effect7862_inverse"
       inkscape:label="filtermask-powermask-path-effect7862"
       style="color-interpolation-filters:sRGB"
       height="100"
       width="100"
       x="-50"
       y="-50"><feColorMatrix
         id="mask-powermask-path-effect7862_primitive1"
         values="1"
         type="saturate"
         result="fbSourceGraphic" /><feColorMatrix
         id="mask-powermask-path-effect7862_primitive2"
         values="-1 0 0 0 1 0 -1 0 0 1 0 0 -1 0 1 0 0 0 1 0 "
         in="fbSourceGraphic" /></filter><clipPath
       clipPathUnits="userSpaceOnUse"
       id="clipPath7941"><path
         style="display:none;fill:#008000;stroke:none;stroke-width:0.564999;stroke-linecap:butt;stroke-linejoin:miter;stroke-dasharray:none;stroke-opacity:1"
         d="m 98.22031,186.66232 c 0.396881,-2.03399 0.53743,-3.23289 0.620112,-3.56362 0.0827,-0.33073 0.344049,-0.83821 0.585888,-0.91468 0.0317,-0.01 0.06,-0.0486 0.0782,-0.0496 0.292581,-0.0172 0.33238,0.11603 0.344029,0.2975 0.004,0.0573 -0.01,0.0773 -0.005,0.14281 0.006,0.0805 0.0328,0.21071 0.0631,0.33178 0.0449,0.17945 0.173051,0.62225 0.236481,0.85247 0.0792,0.28739 0.14796,0.53853 0.22288,0.8265 0.10419,0.40051 0.17061,0.70297 0.2269,0.92759 0.0881,0.35167 0.31507,0.96171 0.30633,1.16482 -0.008,0.1945 0.0225,0.23853 0.01,0.37897 -0.0336,0.37921 -0.482,0.37422 -0.950949,0.51422 -0.559721,0.16709 -0.551892,0.15823 -1.064541,0.32324 -0.51262,0.16537 -0.49195,0.17367 -0.673859,0.19017 -0.181901,0.0165 -0.302422,-0.22385 -0.297651,-0.31833 0.007,-0.13314 0.297651,-1.1038 0.297651,-1.1038 z"
         id="path7943"
         sodipodi:nodetypes="csssssssssssssssc"
         inkscape:original-d="m 98.22031,186.66232 c 0.396881,-2.03399 0.53743,-3.23289 0.620112,-3.56362 0.0827,-0.33073 0.344049,-0.83821 0.585888,-0.91468 0.0317,-0.01 0.06,-0.0486 0.0782,-0.0496 0.292581,-0.0172 0.33238,0.11603 0.344029,0.2975 0.004,0.0573 -0.01,0.0773 -0.005,0.14281 0.006,0.0805 0.0328,0.21071 0.0631,0.33178 0.0449,0.17945 0.173051,0.62225 0.236481,0.85247 0.0792,0.28739 0.14796,0.53853 0.22288,0.8265 0.10419,0.40051 0.17061,0.70297 0.2269,0.92759 0.0881,0.35167 0.31507,0.96171 0.30633,1.16482 -0.008,0.1945 0.0225,0.23853 0.01,0.37897 -0.0336,0.37921 -0.482,0.37422 -0.950949,0.51422 -0.559721,0.16709 -0.551892,0.15823 -1.064541,0.32324 -0.51262,0.16537 -0.49195,0.17367 -0.673859,0.19017 -0.181901,0.0165 -0.302422,-0.22385 -0.297651,-0.31833 0.007,-0.13314 0.297651,-1.1038 0.297651,-1.1038 z" /><path
         id="lpe_path-effect7945"
         style="fill:#008000;stroke:none;stroke-width:0.564999;stroke-linecap:butt;stroke-linejoin:miter;stroke-dasharray:none;stroke-opacity:1"
         class="powerclip"
         d="m 84.674009,170.93235 h 30.760981 v 31.66903 H 84.674009 Z m 13.546301,15.72997 -4.29e-4,4e-5 c 0,0 -0.290651,0.97066 -0.297651,1.1038 -0.0048,0.0945 0.11575,0.33483 0.297651,0.31833 0.181909,-0.0165 0.161239,-0.0248 0.673859,-0.19017 0.512649,-0.16501 0.50482,-0.15615 1.064541,-0.32324 0.468949,-0.14 0.917349,-0.13501 0.950949,-0.51422 0.0125,-0.14044 -0.018,-0.18447 -0.01,-0.37897 0.009,-0.20311 -0.21823,-0.81315 -0.30633,-1.16482 -0.0563,-0.22462 -0.12271,-0.52708 -0.2269,-0.92759 -0.0749,-0.28797 -0.14368,-0.53911 -0.22288,-0.8265 -0.0634,-0.23022 -0.191581,-0.67302 -0.236481,-0.85247 -0.0303,-0.12107 -0.0571,-0.25128 -0.0631,-0.33178 -0.005,-0.0655 0.009,-0.0855 0.005,-0.14281 -0.01165,-0.18147 -0.05145,-0.3147 -0.344029,-0.2975 -0.0182,0.001 -0.0465,0.0396 -0.0782,0.0496 -0.241839,0.0765 -0.503188,0.58395 -0.585888,0.91468 -0.08268,0.33073 -0.223231,1.52963 -0.620112,3.56362 z"
         inkscape:original-d="m 84.674009,170.93235 h 30.760981 v 31.66903 H 84.674009 Z m 13.546301,15.72997 -4.29e-4,4e-5 c 0,0 -0.290651,0.97066 -0.297651,1.1038 -0.0048,0.0945 0.11575,0.33483 0.297651,0.31833 0.181909,-0.0165 0.161239,-0.0248 0.673859,-0.19017 0.512649,-0.16501 0.50482,-0.15615 1.064541,-0.32324 0.468949,-0.14 0.917349,-0.13501 0.950949,-0.51422 0.0125,-0.14044 -0.018,-0.18447 -0.01,-0.37897 0.009,-0.20311 -0.21823,-0.81315 -0.30633,-1.16482 -0.0563,-0.22462 -0.12271,-0.52708 -0.2269,-0.92759 -0.0749,-0.28797 -0.14368,-0.53911 -0.22288,-0.8265 -0.0634,-0.23022 -0.191581,-0.67302 -0.236481,-0.85247 -0.0303,-0.12107 -0.0571,-0.25128 -0.0631,-0.33178 -0.005,-0.0655 0.009,-0.0855 0.005,-0.14281 -0.01165,-0.18147 -0.05145,-0.3147 -0.344029,-0.2975 -0.0182,0.001 -0.0465,0.0396 -0.0782,0.0496 -0.241839,0.0765 -0.503188,0.58395 -0.585888,0.91468 -0.08268,0.33073 -0.223231,1.52963 -0.620112,3.56362 z" /></clipPath><clipPath
       clipPathUnits="userSpaceOnUse"
       id="clipPath7941-2"><path
         style="display:none;fill:#008000;stroke:none;stroke-width:0.564999;stroke-linecap:butt;stroke-linejoin:miter;stroke-dasharray:none;stroke-opacity:1"
         d="m 98.22031,186.66232 c 0.396881,-2.03399 0.53743,-3.23289 0.620112,-3.56362 0.0827,-0.33073 0.344049,-0.83821 0.585888,-0.91468 0.0317,-0.01 0.06,-0.0486 0.0782,-0.0496 0.292581,-0.0172 0.33238,0.11603 0.344029,0.2975 0.004,0.0573 -0.01,0.0773 -0.005,0.14281 0.006,0.0805 0.0328,0.21071 0.0631,0.33178 0.0449,0.17945 0.173051,0.62225 0.236481,0.85247 0.0792,0.28739 0.14796,0.53853 0.22288,0.8265 0.10419,0.40051 0.17061,0.70297 0.2269,0.92759 0.0881,0.35167 0.31507,0.96171 0.30633,1.16482 -0.008,0.1945 0.0225,0.23853 0.01,0.37897 -0.0336,0.37921 -0.482,0.37422 -0.950949,0.51422 -0.559721,0.16709 -0.551892,0.15823 -1.064541,0.32324 -0.51262,0.16537 -0.49195,0.17367 -0.673859,0.19017 -0.181901,0.0165 -0.302422,-0.22385 -0.297651,-0.31833 0.007,-0.13314 0.297651,-1.1038 0.297651,-1.1038 z"
         id="path7943-0"
         sodipodi:nodetypes="csssssssssssssssc" /><path
         id="lpe_path-effect7945-5"
         style="fill:#008000;stroke:none;stroke-width:0.564999;stroke-linecap:butt;stroke-linejoin:miter;stroke-dasharray:none;stroke-opacity:1"
         class="powerclip"
         d="m 84.674009,170.93235 h 30.760981 v 31.66903 H 84.674009 Z m 13.546301,15.72997 -4.29e-4,4e-5 c 0,0 -0.290651,0.97066 -0.297651,1.1038 -0.0048,0.0945 0.11575,0.33483 0.297651,0.31833 0.181909,-0.0165 0.161239,-0.0248 0.673859,-0.19017 0.512649,-0.16501 0.50482,-0.15615 1.064541,-0.32324 0.468949,-0.14 0.917349,-0.13501 0.950949,-0.51422 0.0125,-0.14044 -0.018,-0.18447 -0.01,-0.37897 0.009,-0.20311 -0.21823,-0.81315 -0.30633,-1.16482 -0.0563,-0.22462 -0.12271,-0.52708 -0.2269,-0.92759 -0.0749,-0.28797 -0.14368,-0.53911 -0.22288,-0.8265 -0.0634,-0.23022 -0.191581,-0.67302 -0.236481,-0.85247 -0.0303,-0.12107 -0.0571,-0.25128 -0.0631,-0.33178 -0.005,-0.0655 0.009,-0.0855 0.005,-0.14281 -0.01165,-0.18147 -0.05145,-0.3147 -0.344029,-0.2975 -0.0182,0.001 -0.0465,0.0396 -0.0782,0.0496 -0.241839,0.0765 -0.503188,0.58395 -0.585888,0.91468 -0.08268,0.33073 -0.223231,1.52963 -0.620112,3.56362 z" /></clipPath><inkscape:path-effect
       effect="powerclip"
       id="path-effect7945-6"
       is_visible="true"
       lpeversion="1"
       inverse="true"
       flatten="false"
       hide_clip="false"
       message="Usar a regra de preenchimento par ou ímpar na caixa de diálogo &lt;b&gt;preenchimento e contorno&lt;/b&gt; se nenhum resultado nivelar após converter o clipe em caminhos." /><clipPath
       clipPathUnits="userSpaceOnUse"
       id="clipath_lpe_path-effect7945-6"><path
         style="display:block;fill:#008000;stroke:none;stroke-width:0.564999;stroke-linecap:butt;stroke-linejoin:miter;stroke-dasharray:none;stroke-opacity:1"
         d="m 98.22031,186.66232 c 0.396881,-2.03399 0.53743,-3.23289 0.620112,-3.56362 0.0827,-0.33073 0.344049,-0.83821 0.585888,-0.91468 0.0317,-0.01 0.06,-0.0486 0.0782,-0.0496 0.292581,-0.0172 0.33238,0.11603 0.344029,0.2975 0.004,0.0573 -0.01,0.0773 -0.005,0.14281 0.006,0.0805 0.0328,0.21071 0.0631,0.33178 0.0449,0.17945 0.173051,0.62225 0.236481,0.85247 0.0792,0.28739 0.14796,0.53853 0.22288,0.8265 0.10419,0.40051 0.17061,0.70297 0.2269,0.92759 0.0881,0.35167 0.31507,0.96171 0.30633,1.16482 -0.008,0.1945 0.0225,0.23853 0.01,0.37897 -0.0336,0.37921 -0.482,0.37422 -0.950949,0.51422 -0.559721,0.16709 -0.551892,0.15823 -1.064541,0.32324 -0.51262,0.16537 -0.49195,0.17367 -0.673859,0.19017 -0.181901,0.0165 -0.302422,-0.22385 -0.297651,-0.31833 0.007,-0.13314 0.297651,-1.1038 0.297651,-1.1038 z"
         id="path8006"
         sodipodi:nodetypes="csssssssssssssssc" /></clipPath><filter
       id="mask-powermask-path-effect8025_inverse"
       inkscape:label="filtermask-powermask-path-effect8025"
       style="color-interpolation-filters:sRGB"
       height="100"
       width="100"
       x="-50"
       y="-50"><feColorMatrix
         id="mask-powermask-path-effect8025_primitive1"
         values="1"
         type="saturate"
         result="fbSourceGraphic" /><feColorMatrix
         id="mask-powermask-path-effect8025_primitive2"
         values="-1 0 0 0 1 0 -1 0 0 1 0 0 -1 0 1 0 0 0 1 0 "
         in="fbSourceGraphic" /></filter><filter
       id="mask-powermask-path-effect8035_inverse"
       inkscape:label="filtermask-powermask-path-effect8035"
       style="color-interpolation-filters:sRGB"
       height="100"
       width="100"
       x="-50"
       y="-50"><feColorMatrix
         id="mask-powermask-path-effect8035_primitive1"
         values="1"
         type="saturate"
         result="fbSourceGraphic" /><feColorMatrix
         id="mask-powermask-path-effect8035_primitive2"
         values="-1 0 0 0 1 0 -1 0 0 1 0 0 -1 0 1 0 0 0 1 0 "
         in="fbSourceGraphic" /></filter><filter
       id="mask-powermask-path-effect8049_inverse"
       inkscape:label="filtermask-powermask-path-effect8049"
       style="color-interpolation-filters:sRGB"
       height="100"
       width="100"
       x="-50"
       y="-50"><feColorMatrix
         id="mask-powermask-path-effect8049_primitive1"
         values="1"
         type="saturate"
         result="fbSourceGraphic" /><feColorMatrix
         id="mask-powermask-path-effect8049_primitive2"
         values="-1 0 0 0 1 0 -1 0 0 1 0 0 -1 0 1 0 0 0 1 0 "
         in="fbSourceGraphic" /></filter><filter
       id="mask-powermask-path-effect8089_inverse"
       inkscape:label="filtermask-powermask-path-effect8089"
       style="color-interpolation-filters:sRGB"
       height="100"
       width="100"
       x="-50"
       y="-50"><feColorMatrix
         id="mask-powermask-path-effect8089_primitive1"
         values="1"
         type="saturate"
         result="fbSourceGraphic" /><feColorMatrix
         id="mask-powermask-path-effect8089_primitive2"
         values="-1 0 0 0 1 0 -1 0 0 1 0 0 -1 0 1 0 0 0 1 0 "
         in="fbSourceGraphic" /></filter><filter
       id="mask-powermask-path-effect8099_inverse"
       inkscape:label="filtermask-powermask-path-effect8099"
       style="color-interpolation-filters:sRGB"
       height="100"
       width="100"
       x="-50"
       y="-50"><feColorMatrix
         id="mask-powermask-path-effect8099_primitive1"
         values="1"
         type="saturate"
         result="fbSourceGraphic" /><feColorMatrix
         id="mask-powermask-path-effect8099_primitive2"
         values="-1 0 0 0 1 0 -1 0 0 1 0 0 -1 0 1 0 0 0 1 0 "
         in="fbSourceGraphic" /></filter><filter
       id="mask-powermask-path-effect8117_inverse"
       inkscape:label="filtermask-powermask-path-effect8117"
       style="color-interpolation-filters:sRGB"
       height="100"
       width="100"
       x="-50"
       y="-50"><feColorMatrix
         id="mask-powermask-path-effect8117_primitive1"
         values="1"
         type="saturate"
         result="fbSourceGraphic" /><feColorMatrix
         id="mask-powermask-path-effect8117_primitive2"
         values="-1 0 0 0 1 0 -1 0 0 1 0 0 -1 0 1 0 0 0 1 0 "
         in="fbSourceGraphic" /></filter><filter
       id="mask-powermask-path-effect8131_inverse"
       inkscape:label="filtermask-powermask-path-effect8131"
       style="color-interpolation-filters:sRGB"
       height="100"
       width="100"
       x="-50"
       y="-50"><feColorMatrix
         id="mask-powermask-path-effect8131_primitive1"
         values="1"
         type="saturate"
         result="fbSourceGraphic" /><feColorMatrix
         id="mask-powermask-path-effect8131_primitive2"
         values="-1 0 0 0 1 0 -1 0 0 1 0 0 -1 0 1 0 0 0 1 0 "
         in="fbSourceGraphic" /></filter><clipPath
       clipPathUnits="userSpaceOnUse"
       id="clipPath7941-1"><path
         style="display:none;fill:#008000;stroke:none;stroke-width:0.564999;stroke-linecap:butt;stroke-linejoin:miter;stroke-dasharray:none;stroke-opacity:1"
         d="m 98.22031,186.66232 c 0.396881,-2.03399 0.53743,-3.23289 0.620112,-3.56362 0.0827,-0.33073 0.344049,-0.83821 0.585888,-0.91468 0.0317,-0.01 0.06,-0.0486 0.0782,-0.0496 0.292581,-0.0172 0.33238,0.11603 0.344029,0.2975 0.004,0.0573 -0.01,0.0773 -0.005,0.14281 0.006,0.0805 0.0328,0.21071 0.0631,0.33178 0.0449,0.17945 0.173051,0.62225 0.236481,0.85247 0.0792,0.28739 0.14796,0.53853 0.22288,0.8265 0.10419,0.40051 0.17061,0.70297 0.2269,0.92759 0.0881,0.35167 0.31507,0.96171 0.30633,1.16482 -0.008,0.1945 0.0225,0.23853 0.01,0.37897 -0.0336,0.37921 -0.482,0.37422 -0.950949,0.51422 -0.559721,0.16709 -0.551892,0.15823 -1.064541,0.32324 -0.51262,0.16537 -0.49195,0.17367 -0.673859,0.19017 -0.181901,0.0165 -0.302422,-0.22385 -0.297651,-0.31833 0.007,-0.13314 0.297651,-1.1038 0.297651,-1.1038 z"
         id="path7943-3"
         sodipodi:nodetypes="csssssssssssssssc" /><path
         id="lpe_path-effect7945-2"
         style="fill:#008000;stroke:none;stroke-width:0.564999;stroke-linecap:butt;stroke-linejoin:miter;stroke-dasharray:none;stroke-opacity:1"
         class="powerclip"
         d="m 84.674009,170.93235 h 30.760981 v 31.66903 H 84.674009 Z m 13.546301,15.72997 -4.29e-4,4e-5 c 0,0 -0.290651,0.97066 -0.297651,1.1038 -0.0048,0.0945 0.11575,0.33483 0.297651,0.31833 0.181909,-0.0165 0.161239,-0.0248 0.673859,-0.19017 0.512649,-0.16501 0.50482,-0.15615 1.064541,-0.32324 0.468949,-0.14 0.917349,-0.13501 0.950949,-0.51422 0.0125,-0.14044 -0.018,-0.18447 -0.01,-0.37897 0.009,-0.20311 -0.21823,-0.81315 -0.30633,-1.16482 -0.0563,-0.22462 -0.12271,-0.52708 -0.2269,-0.92759 -0.0749,-0.28797 -0.14368,-0.53911 -0.22288,-0.8265 -0.0634,-0.23022 -0.191581,-0.67302 -0.236481,-0.85247 -0.0303,-0.12107 -0.0571,-0.25128 -0.0631,-0.33178 -0.005,-0.0655 0.009,-0.0855 0.005,-0.14281 -0.01165,-0.18147 -0.05145,-0.3147 -0.344029,-0.2975 -0.0182,0.001 -0.0465,0.0396 -0.0782,0.0496 -0.241839,0.0765 -0.503188,0.58395 -0.585888,0.91468 -0.08268,0.33073 -0.223231,1.52963 -0.620112,3.56362 z" /></clipPath><inkscape:path-effect
       effect="powerclip"
       id="path-effect7945-7"
       is_visible="true"
       lpeversion="1"
       inverse="true"
       flatten="false"
       hide_clip="false"
       message="Usar a regra de preenchimento par ou ímpar na caixa de diálogo &lt;b&gt;preenchimento e contorno&lt;/b&gt; se nenhum resultado nivelar após converter o clipe em caminhos." /><clipPath
       clipPathUnits="userSpaceOnUse"
       id="clipath_lpe_path-effect7945-7"><path
         style="display:block;fill:#008000;stroke:none;stroke-width:0.564999;stroke-linecap:butt;stroke-linejoin:miter;stroke-dasharray:none;stroke-opacity:1"
         d="m 98.22031,186.66232 c 0.396881,-2.03399 0.53743,-3.23289 0.620112,-3.56362 0.0827,-0.33073 0.344049,-0.83821 0.585888,-0.91468 0.0317,-0.01 0.06,-0.0486 0.0782,-0.0496 0.292581,-0.0172 0.33238,0.11603 0.344029,0.2975 0.004,0.0573 -0.01,0.0773 -0.005,0.14281 0.006,0.0805 0.0328,0.21071 0.0631,0.33178 0.0449,0.17945 0.173051,0.62225 0.236481,0.85247 0.0792,0.28739 0.14796,0.53853 0.22288,0.8265 0.10419,0.40051 0.17061,0.70297 0.2269,0.92759 0.0881,0.35167 0.31507,0.96171 0.30633,1.16482 -0.008,0.1945 0.0225,0.23853 0.01,0.37897 -0.0336,0.37921 -0.482,0.37422 -0.950949,0.51422 -0.559721,0.16709 -0.551892,0.15823 -1.064541,0.32324 -0.51262,0.16537 -0.49195,0.17367 -0.673859,0.19017 -0.181901,0.0165 -0.302422,-0.22385 -0.297651,-0.31833 0.007,-0.13314 0.297651,-1.1038 0.297651,-1.1038 z"
         id="path8230"
         sodipodi:nodetypes="csssssssssssssssc" /></clipPath><filter
       id="mask-powermask-path-effect8248_inverse"
       inkscape:label="filtermask-powermask-path-effect8248"
       style="color-interpolation-filters:sRGB"
       height="100"
       width="100"
       x="-50"
       y="-50"><feColorMatrix
         id="mask-powermask-path-effect8248_primitive1"
         values="1"
         type="saturate"
         result="fbSourceGraphic" /><feColorMatrix
         id="mask-powermask-path-effect8248_primitive2"
         values="-1 0 0 0 1 0 -1 0 0 1 0 0 -1 0 1 0 0 0 1 0 "
         in="fbSourceGraphic" /></filter><clipPath
       clipPathUnits="userSpaceOnUse"
       id="clipPath7941-5"><path
         style="display:none;fill:#008000;stroke:none;stroke-width:0.564999;stroke-linecap:butt;stroke-linejoin:miter;stroke-dasharray:none;stroke-opacity:1"
         d="m 98.22031,186.66232 c 0.396881,-2.03399 0.53743,-3.23289 0.620112,-3.56362 0.0827,-0.33073 0.344049,-0.83821 0.585888,-0.91468 0.0317,-0.01 0.06,-0.0486 0.0782,-0.0496 0.292581,-0.0172 0.33238,0.11603 0.344029,0.2975 0.004,0.0573 -0.01,0.0773 -0.005,0.14281 0.006,0.0805 0.0328,0.21071 0.0631,0.33178 0.0449,0.17945 0.173051,0.62225 0.236481,0.85247 0.0792,0.28739 0.14796,0.53853 0.22288,0.8265 0.10419,0.40051 0.17061,0.70297 0.2269,0.92759 0.0881,0.35167 0.31507,0.96171 0.30633,1.16482 -0.008,0.1945 0.0225,0.23853 0.01,0.37897 -0.0336,0.37921 -0.482,0.37422 -0.950949,0.51422 -0.559721,0.16709 -0.551892,0.15823 -1.064541,0.32324 -0.51262,0.16537 -0.49195,0.17367 -0.673859,0.19017 -0.181901,0.0165 -0.302422,-0.22385 -0.297651,-0.31833 0.007,-0.13314 0.297651,-1.1038 0.297651,-1.1038 z"
         id="path7943-7"
         sodipodi:nodetypes="csssssssssssssssc" /><path
         id="lpe_path-effect7945-1"
         style="fill:#008000;stroke:none;stroke-width:0.564999;stroke-linecap:butt;stroke-linejoin:miter;stroke-dasharray:none;stroke-opacity:1"
         class="powerclip"
         d="m 84.674009,170.93235 h 30.760981 v 31.66903 H 84.674009 Z m 13.546301,15.72997 -4.29e-4,4e-5 c 0,0 -0.290651,0.97066 -0.297651,1.1038 -0.0048,0.0945 0.11575,0.33483 0.297651,0.31833 0.181909,-0.0165 0.161239,-0.0248 0.673859,-0.19017 0.512649,-0.16501 0.50482,-0.15615 1.064541,-0.32324 0.468949,-0.14 0.917349,-0.13501 0.950949,-0.51422 0.0125,-0.14044 -0.018,-0.18447 -0.01,-0.37897 0.009,-0.20311 -0.21823,-0.81315 -0.30633,-1.16482 -0.0563,-0.22462 -0.12271,-0.52708 -0.2269,-0.92759 -0.0749,-0.28797 -0.14368,-0.53911 -0.22288,-0.8265 -0.0634,-0.23022 -0.191581,-0.67302 -0.236481,-0.85247 -0.0303,-0.12107 -0.0571,-0.25128 -0.0631,-0.33178 -0.005,-0.0655 0.009,-0.0855 0.005,-0.14281 -0.01165,-0.18147 -0.05145,-0.3147 -0.344029,-0.2975 -0.0182,0.001 -0.0465,0.0396 -0.0782,0.0496 -0.241839,0.0765 -0.503188,0.58395 -0.585888,0.91468 -0.08268,0.33073 -0.223231,1.52963 -0.620112,3.56362 z" /></clipPath><inkscape:path-effect
       effect="powerclip"
       id="path-effect7945-61"
       is_visible="true"
       lpeversion="1"
       inverse="true"
       flatten="false"
       hide_clip="false"
       message="Usar a regra de preenchimento par ou ímpar na caixa de diálogo &lt;b&gt;preenchimento e contorno&lt;/b&gt; se nenhum resultado nivelar após converter o clipe em caminhos." /><clipPath
       clipPathUnits="userSpaceOnUse"
       id="clipath_lpe_path-effect7945-61"><path
         style="display:block;fill:#008000;stroke:none;stroke-width:0.564999;stroke-linecap:butt;stroke-linejoin:miter;stroke-dasharray:none;stroke-opacity:1"
         d="m 98.22031,186.66232 c 0.396881,-2.03399 0.53743,-3.23289 0.620112,-3.56362 0.0827,-0.33073 0.344049,-0.83821 0.585888,-0.91468 0.0317,-0.01 0.06,-0.0486 0.0782,-0.0496 0.292581,-0.0172 0.33238,0.11603 0.344029,0.2975 0.004,0.0573 -0.01,0.0773 -0.005,0.14281 0.006,0.0805 0.0328,0.21071 0.0631,0.33178 0.0449,0.17945 0.173051,0.62225 0.236481,0.85247 0.0792,0.28739 0.14796,0.53853 0.22288,0.8265 0.10419,0.40051 0.17061,0.70297 0.2269,0.92759 0.0881,0.35167 0.31507,0.96171 0.30633,1.16482 -0.008,0.1945 0.0225,0.23853 0.01,0.37897 -0.0336,0.37921 -0.482,0.37422 -0.950949,0.51422 -0.559721,0.16709 -0.551892,0.15823 -1.064541,0.32324 -0.51262,0.16537 -0.49195,0.17367 -0.673859,0.19017 -0.181901,0.0165 -0.302422,-0.22385 -0.297651,-0.31833 0.007,-0.13314 0.297651,-1.1038 0.297651,-1.1038 z"
         id="path8291"
         sodipodi:nodetypes="csssssssssssssssc" /></clipPath><clipPath
       clipPathUnits="userSpaceOnUse"
       id="clipPath8297"><path
         style="display:none;fill:#008000;stroke:none;stroke-width:0.564999;stroke-linecap:butt;stroke-linejoin:miter;stroke-dasharray:none;stroke-opacity:1"
         d="m 135.42482,186.69366 c 0.39688,-2.03399 0.53743,-3.23289 0.62011,-3.56362 0.0827,-0.33073 0.34405,-0.83821 0.58589,-0.91468 0.0317,-0.01 0.06,-0.0486 0.0782,-0.0496 0.29258,-0.0172 0.33238,0.11603 0.34403,0.2975 0.004,0.0573 -0.01,0.0773 -0.005,0.14281 0.006,0.0805 0.0328,0.21071 0.0631,0.33178 0.0449,0.17945 0.17305,0.62225 0.23648,0.85247 0.0792,0.28739 0.14796,0.53853 0.22288,0.8265 0.10419,0.40051 0.17061,0.70297 0.2269,0.92759 0.0881,0.35167 0.31507,0.96171 0.30633,1.16482 -0.008,0.1945 0.0225,0.23853 0.01,0.37897 -0.0336,0.37921 -0.482,0.37422 -0.95095,0.51422 -0.55972,0.16709 -0.55189,0.15823 -1.06454,0.32324 -0.51262,0.16537 -0.49195,0.17367 -0.67386,0.19017 -0.1819,0.0165 -0.30242,-0.22385 -0.29765,-0.31833 0.007,-0.13314 0.29765,-1.1038 0.29765,-1.1038 z"
         id="path8299"
         sodipodi:nodetypes="csssssssssssssssc"
         inkscape:original-d="m 135.42482,186.69366 c 0.39688,-2.03399 0.53743,-3.23289 0.62011,-3.56362 0.0827,-0.33073 0.34405,-0.83821 0.58589,-0.91468 0.0317,-0.01 0.06,-0.0486 0.0782,-0.0496 0.29258,-0.0172 0.33238,0.11603 0.34403,0.2975 0.004,0.0573 -0.01,0.0773 -0.005,0.14281 0.006,0.0805 0.0328,0.21071 0.0631,0.33178 0.0449,0.17945 0.17305,0.62225 0.23648,0.85247 0.0792,0.28739 0.14796,0.53853 0.22288,0.8265 0.10419,0.40051 0.17061,0.70297 0.2269,0.92759 0.0881,0.35167 0.31507,0.96171 0.30633,1.16482 -0.008,0.1945 0.0225,0.23853 0.01,0.37897 -0.0336,0.37921 -0.482,0.37422 -0.95095,0.51422 -0.55972,0.16709 -0.55189,0.15823 -1.06454,0.32324 -0.51262,0.16537 -0.49195,0.17367 -0.67386,0.19017 -0.1819,0.0165 -0.30242,-0.22385 -0.29765,-0.31833 0.007,-0.13314 0.29765,-1.1038 0.29765,-1.1038 z" /><path
         id="lpe_path-effect8301"
         style="fill:#008000;stroke:none;stroke-width:0.564999;stroke-linecap:butt;stroke-linejoin:miter;stroke-dasharray:none;stroke-opacity:1"
         class="powerclip"
         d="m 121.96289,170.81517 h 30.76099 v 31.66904 h -30.76099 z m 13.46193,15.87849 -4.3e-4,4e-5 c 0,0 -0.29065,0.97066 -0.29765,1.1038 -0.005,0.0945 0.11575,0.33483 0.29765,0.31833 0.18191,-0.0165 0.16124,-0.0248 0.67386,-0.19017 0.51265,-0.16501 0.50482,-0.15615 1.06454,-0.32324 0.46895,-0.14 0.91735,-0.13501 0.95095,-0.51422 0.0125,-0.14044 -0.018,-0.18447 -0.01,-0.37897 0.009,-0.20311 -0.21823,-0.81315 -0.30633,-1.16482 -0.0563,-0.22462 -0.12271,-0.52708 -0.2269,-0.92759 -0.0749,-0.28797 -0.14368,-0.53911 -0.22288,-0.8265 -0.0634,-0.23022 -0.19158,-0.67302 -0.23648,-0.85247 -0.0303,-0.12107 -0.0571,-0.25128 -0.0631,-0.33178 -0.005,-0.0655 0.009,-0.0855 0.005,-0.14281 -0.0117,-0.18147 -0.0515,-0.3147 -0.34403,-0.2975 -0.0182,0.001 -0.0465,0.0396 -0.0782,0.0496 -0.24184,0.0765 -0.50319,0.58395 -0.58589,0.91468 -0.0827,0.33073 -0.22323,1.52963 -0.62011,3.56362 z"
         inkscape:original-d="m 121.96289,170.81517 h 30.76099 v 31.66904 h -30.76099 z m 13.46193,15.87849 -4.3e-4,4e-5 c 0,0 -0.29065,0.97066 -0.29765,1.1038 -0.005,0.0945 0.11575,0.33483 0.29765,0.31833 0.18191,-0.0165 0.16124,-0.0248 0.67386,-0.19017 0.51265,-0.16501 0.50482,-0.15615 1.06454,-0.32324 0.46895,-0.14 0.91735,-0.13501 0.95095,-0.51422 0.0125,-0.14044 -0.018,-0.18447 -0.01,-0.37897 0.009,-0.20311 -0.21823,-0.81315 -0.30633,-1.16482 -0.0563,-0.22462 -0.12271,-0.52708 -0.2269,-0.92759 -0.0749,-0.28797 -0.14368,-0.53911 -0.22288,-0.8265 -0.0634,-0.23022 -0.19158,-0.67302 -0.23648,-0.85247 -0.0303,-0.12107 -0.0571,-0.25128 -0.0631,-0.33178 -0.005,-0.0655 0.009,-0.0855 0.005,-0.14281 -0.0117,-0.18147 -0.0515,-0.3147 -0.34403,-0.2975 -0.0182,0.001 -0.0465,0.0396 -0.0782,0.0496 -0.24184,0.0765 -0.50319,0.58395 -0.58589,0.91468 -0.0827,0.33073 -0.22323,1.52963 -0.62011,3.56362 z" /></clipPath><filter
       id="mask-powermask-path-effect8447_inverse"
       inkscape:label="filtermask-powermask-path-effect8447"
       style="color-interpolation-filters:sRGB"
       height="100"
       width="100"
       x="-50"
       y="-50"><feColorMatrix
         id="mask-powermask-path-effect8447_primitive1"
         values="1"
         type="saturate"
         result="fbSourceGraphic" /><feColorMatrix
         id="mask-powermask-path-effect8447_primitive2"
         values="-1 0 0 0 1 0 -1 0 0 1 0 0 -1 0 1 0 0 0 1 0 "
         in="fbSourceGraphic" /></filter><filter
       id="mask-powermask-path-effect9466_inverse"
       inkscape:label="filtermask-powermask-path-effect9466"
       style="color-interpolation-filters:sRGB"
       height="100"
       width="100"
       x="-50"
       y="-50"><feColorMatrix
         id="mask-powermask-path-effect9466_primitive1"
         values="1"
         type="saturate"
         result="fbSourceGraphic" /><feColorMatrix
         id="mask-powermask-path-effect9466_primitive2"
         values="-1 0 0 0 1 0 -1 0 0 1 0 0 -1 0 1 0 0 0 1 0 "
         in="fbSourceGraphic" /></filter><filter
       id="mask-powermask-path-effect10133_inverse"
       inkscape:label="filtermask-powermask-path-effect10133"
       style="color-interpolation-filters:sRGB"
       height="100"
       width="100"
       x="-50"
       y="-50"><feColorMatrix
         id="mask-powermask-path-effect10133_primitive1"
         values="1"
         type="saturate"
         result="fbSourceGraphic" /><feColorMatrix
         id="mask-powermask-path-effect10133_primitive2"
         values="-1 0 0 0 1 0 -1 0 0 1 0 0 -1 0 1 0 0 0 1 0 "
         in="fbSourceGraphic" /></filter><filter
       id="mask-powermask-path-effect449_inverse"
       inkscape:label="filtermask-powermask-path-effect449"
       style="color-interpolation-filters:sRGB"
       height="100"
       width="100"
       x="-50"
       y="-50"><feColorMatrix
         id="mask-powermask-path-effect449_primitive1"
         values="1"
         type="saturate"
         result="fbSourceGraphic" /><feColorMatrix
         id="mask-powermask-path-effect449_primitive2"
         values="-1 0 0 0 1 0 -1 0 0 1 0 0 -1 0 1 0 0 0 1 0 "
         in="fbSourceGraphic" /></filter><mask
       maskUnits="userSpaceOnUse"
       id="mask-powermask-path-effect953"><path
         id="mask-powermask-path-effect953_box"
         style="fill:#ffffff;fill-opacity:1"
         d="M 42.723793,164.9845 H 170.89748 v 36.26582 H 42.723793 Z" /><g
         id="g951"
         style=""><path
           style="fill:#000000;stroke:#000000;stroke-width:0.665;stroke-linecap:butt;stroke-linejoin:miter;stroke-dasharray:none;stroke-opacity:1"
           d="m 92.667558,192.54323 c 0.94309,-1.7814 0.55413,-1.97002 1.45367,-4.77636 0.90756,-2.83135 1.63703,-4.20949 2.38538,-6.50133 0.30531,-0.93503 0.53801,-1.59482 0.66022,-2.08327 0.17734,-0.70877 0.18605,-1.05674 0.37988,-1.36133 0.32741,-0.51449 1.14189,-0.58299 1.42253,-0.62976 0.28063,-0.0468 0.89953,-0.53411 1.238052,-0.77884 0.34946,-0.25263 0.8596,-0.47882 1.60796,1.95333 0.74835,2.43215 3.29743,9.68184 3.6716,10.85114 0.37418,1.16931 0.93313,2.57088 1.29793,3.2039 0.39757,0.68989 1.04068,1.52009 1.13423,2.08136 0.0935,0.56126 0.48537,0.97242 0.88867,1.49671 0.74055,0.96271 1.30819,0.83491 1.29481,1.06388 -0.0143,0.24479 -1.17704,0.10386 -2.6512,0.15219 -1.63422,0.0536 -3.04122,0.0445 -3.9171,0.0529 -0.65328,0.006 -0.89303,-0.0115 -1.22783,-0.0412 -0.73663,-0.0655 0.6665,-0.19878 0.70158,-1.8358 -0.0468,-1.07576 -0.19874,-2.1866 -0.66651,-3.16882 -0.33605,-0.7057 -0.60759,-2.07618 -1.26717,-2.82106 -0.26285,-0.29685 -1.385692,0.19558 -1.995192,0.37722 -1.76564,0.52618 -2.02289,1.6838 -2.39707,3.07527 -0.31789,1.18215 -0.42095,2.0229 -0.44433,2.64263 -0.0154,0.40836 0.5025,1.25529 0.72927,1.57082 0.11236,0.15634 -0.88784,0.21527 -1.91027,0.19482 -2.33861,-0.0468 -3.57807,-0.0468 -4.96954,-0.23385 -0.28994,-0.11163 0.26556,-0.68001 0.71327,-1.30963 0.54302,-0.76884 1.12302,-1.76931 1.12302,-1.76931 z"
           id="path931"
           sodipodi:nodetypes="sssssssssscsssssccsssssscccs"
           clip-path="url(#clipPath7941)"
           inkscape:path-effect="#path-effect7945"
           inkscape:original-d="m 92.667558,192.54323 c 0.94309,-1.7814 0.55413,-1.97002 1.45367,-4.77636 0.90756,-2.83135 1.63703,-4.20949 2.38538,-6.50133 0.30531,-0.93503 0.53801,-1.59482 0.66022,-2.08327 0.17734,-0.70877 0.18605,-1.05674 0.37988,-1.36133 0.32741,-0.51449 1.14189,-0.58299 1.42253,-0.62976 0.28063,-0.0468 0.89953,-0.53411 1.238052,-0.77884 0.34946,-0.25263 0.8596,-0.47882 1.60796,1.95333 0.74835,2.43215 3.29743,9.68184 3.6716,10.85114 0.37418,1.16931 0.93313,2.57088 1.29793,3.2039 0.39757,0.68989 1.04068,1.52009 1.13423,2.08136 0.0935,0.56126 0.48537,0.97242 0.88867,1.49671 0.74055,0.96271 1.30819,0.83491 1.29481,1.06388 -0.0143,0.24479 -1.17704,0.10386 -2.6512,0.15219 -1.63422,0.0536 -3.04122,0.0445 -3.9171,0.0529 -0.65328,0.006 -0.89303,-0.0115 -1.22783,-0.0412 -0.73663,-0.0655 0.6665,-0.19878 0.70158,-1.8358 -0.0468,-1.07576 -0.19874,-2.1866 -0.66651,-3.16882 -0.33605,-0.7057 -0.60759,-2.07618 -1.26717,-2.82106 -0.26285,-0.29685 -1.385692,0.19558 -1.995192,0.37722 -1.76564,0.52618 -2.02289,1.6838 -2.39707,3.07527 -0.31789,1.18215 -0.42095,2.0229 -0.44433,2.64263 -0.0154,0.40836 0.5025,1.25529 0.72927,1.57082 0.11236,0.15634 -0.88784,0.21527 -1.91027,0.19482 -2.33861,-0.0468 -3.57807,-0.0468 -4.96954,-0.23385 -0.28994,-0.11163 0.26556,-0.68001 0.71327,-1.30963 0.54302,-0.76884 1.12302,-1.76931 1.12302,-1.76931 z" /><path
           style="fill:#000000;stroke:#000000;stroke-width:0.665;stroke-linecap:butt;stroke-linejoin:miter;stroke-dasharray:none;stroke-opacity:1"
           d="m 129.95644,192.42605 c 0.94309,-1.7814 0.55413,-1.97002 1.45367,-4.77635 0.90756,-2.83136 1.63703,-4.20949 2.38538,-6.50133 0.30531,-0.93503 0.53801,-1.59483 0.66022,-2.08327 0.17734,-0.70877 0.18605,-1.05675 0.37988,-1.36133 0.32741,-0.51449 1.14189,-0.58299 1.42253,-0.62977 0.28063,-0.0468 0.89953,-0.53411 1.23805,-0.77883 0.34946,-0.25264 0.8596,-0.47883 1.60796,1.95333 0.74835,2.43215 3.29744,9.68183 3.67161,10.85114 0.37418,1.1693 0.93313,2.57088 1.29793,3.20389 0.39757,0.68989 1.04068,1.5201 1.13423,2.08136 0.0935,0.56127 0.48537,0.97242 0.88867,1.49671 0.74055,0.96272 1.30819,0.83491 1.29481,1.06389 -0.0143,0.24478 -1.17704,0.10386 -2.6512,0.15219 -1.63422,0.0536 -3.04122,0.0445 -3.91711,0.0529 -0.65328,0.006 -0.89303,-0.0115 -1.22783,-0.0413 -0.73663,-0.0655 0.6665,-0.19878 0.70158,-1.83581 -0.0468,-1.07576 -0.19874,-2.1866 -0.66651,-3.16881 -0.33605,-0.70571 -0.60759,-2.07619 -1.26717,-2.82106 -0.26285,-0.29685 -1.38569,0.19558 -1.99519,0.37722 -1.76564,0.52618 -2.02289,1.68379 -2.39707,3.07526 -0.31789,1.18215 -0.42095,2.0229 -0.44433,2.64263 -0.0154,0.40837 0.5025,1.2553 0.72927,1.57082 0.11236,0.15635 -0.88784,0.21528 -1.91027,0.19483 -2.33861,-0.0468 -3.57807,-0.0468 -4.96954,-0.23386 -0.28994,-0.11162 0.26556,-0.68 0.71327,-1.30962 0.54302,-0.76884 1.12302,-1.76932 1.12302,-1.76932 z"
           id="path933"
           sodipodi:nodetypes="sssssssssscsssssccsssssscccs"
           clip-path="url(#clipPath8297)"
           inkscape:path-effect="#path-effect8301"
           inkscape:original-d="m 129.95644,192.42605 c 0.94309,-1.7814 0.55413,-1.97002 1.45367,-4.77635 0.90756,-2.83136 1.63703,-4.20949 2.38538,-6.50133 0.30531,-0.93503 0.53801,-1.59483 0.66022,-2.08327 0.17734,-0.70877 0.18605,-1.05675 0.37988,-1.36133 0.32741,-0.51449 1.14189,-0.58299 1.42253,-0.62977 0.28063,-0.0468 0.89953,-0.53411 1.23805,-0.77883 0.34946,-0.25264 0.8596,-0.47883 1.60796,1.95333 0.74835,2.43215 3.29744,9.68183 3.67161,10.85114 0.37418,1.1693 0.93313,2.57088 1.29793,3.20389 0.39757,0.68989 1.04068,1.5201 1.13423,2.08136 0.0935,0.56127 0.48537,0.97242 0.88867,1.49671 0.74055,0.96272 1.30819,0.83491 1.29481,1.06389 -0.0143,0.24478 -1.17704,0.10386 -2.6512,0.15219 -1.63422,0.0536 -3.04122,0.0445 -3.91711,0.0529 -0.65328,0.006 -0.89303,-0.0115 -1.22783,-0.0413 -0.73663,-0.0655 0.6665,-0.19878 0.70158,-1.83581 -0.0468,-1.07576 -0.19874,-2.1866 -0.66651,-3.16881 -0.33605,-0.70571 -0.60759,-2.07619 -1.26717,-2.82106 -0.26285,-0.29685 -1.38569,0.19558 -1.99519,0.37722 -1.76564,0.52618 -2.02289,1.68379 -2.39707,3.07526 -0.31789,1.18215 -0.42095,2.0229 -0.44433,2.64263 -0.0154,0.40837 0.5025,1.2553 0.72927,1.57082 0.11236,0.15635 -0.88784,0.21528 -1.91027,0.19483 -2.33861,-0.0468 -3.57807,-0.0468 -4.96954,-0.23386 -0.28994,-0.11162 0.26556,-0.68 0.71327,-1.30962 0.54302,-0.76884 1.12302,-1.76932 1.12302,-1.76932 z" /><path
           style="fill:#000000;stroke:#000000;stroke-width:0.865;stroke-linecap:butt;stroke-linejoin:miter;stroke-dasharray:none;stroke-opacity:1"
           d="m 114.85276,196.91059 c 0,0 1.59025,-0.0468 1.59025,-4.20949 0,-4.16273 0.18709,-9.21412 0.18709,-9.21412 v -2.8531 c 0,0 0.70159,-1.16931 -3.08696,-0.88868 -3.78854,0.28064 -3.78854,0.28064 -3.78854,0.28064 0,0 -1.49671,0.98221 -1.49671,0.65481 0,-0.32741 -0.14032,-0.98222 0.3274,-1.59026 0.46772,-0.60803 1.59026,-3.78854 4.77076,-2.61924 3.18051,1.16931 12.16076,0 12.34785,0 0.18709,0 2.5257,-0.28063 3.41437,-0.46772 0.88867,-0.18709 0.8419,0.0935 0.18709,1.35639 -0.65481,1.26285 -0.8419,1.73057 -1.54348,2.33861 -0.70158,0.60804 -2.38538,0.14032 -3.50791,0 -1.12254,-0.14031 -3.18051,0.18709 -3.50792,0.32741 -0.3274,0.14031 -0.70158,-0.28064 -0.70158,2.66601 0,2.94665 0.14032,8.2319 0.37418,9.54152 0.23386,1.30962 0.8419,2.01121 0.8419,2.94665 0,0.93544 0.60804,0.93544 0.93544,1.59025 0.32741,0.65481 -3.46114,0.32741 -4.49013,0.32741 -1.02898,0 -2.8531,-0.18709 -2.8531,-0.18709 z"
           id="path935" /><path
           style="fill:#000000;stroke:#000000;stroke-width:0.865;stroke-linecap:butt;stroke-linejoin:miter;stroke-dasharray:none;stroke-opacity:1"
           d="m 152.1193,187.46421 c 0.13229,-2.71198 0.23151,-1.55442 0.13229,-2.71198 -0.0992,-1.15755 -0.16537,-4.06796 -0.29766,-4.29947 -0.13229,-0.23151 0.31419,-0.68627 -0.83509,-0.51263 -1.14928,0.17363 -1.76113,0.14882 -1.4304,-0.55398 0.33073,-0.70279 0.59531,-1.26504 0.94257,-1.76113 0.34727,-0.49609 0.52917,-0.9095 0.74415,-1.0418 0.21497,-0.13229 0.41341,-0.26458 0.82682,-0.24804 0.41341,0.0165 9.22734,0.3638 9.50846,0.39687 0.28112,0.0331 1.48828,0.13229 1.9513,0.39688 0.46302,0.26458 1.85209,1.10794 1.96784,1.35599 0.11576,0.24804 0.51263,0.97565 0.46302,1.67018 -0.0496,0.69453 -0.26458,1.71979 -0.5457,2.14974 -0.28112,0.42995 -1.53789,2.1332 -1.70326,2.36471 -0.16536,0.23151 -0.62838,0.82683 -1.00872,1.12448 -0.38034,0.29766 -0.84166,0.44081 -0.92936,0.70975 -0.0877,0.26894 -0.39171,0.32741 0.12863,1.13423 0.52034,0.80682 2.08136,3.12789 2.33276,3.4436 0.2514,0.31571 1.11084,1.71303 1.46747,2.0989 0.35664,0.38587 1.53179,1.52594 1.76565,1.74811 0.23386,0.22217 0.95299,0.93544 1.2687,1.23946 0.31571,0.30402 1.41486,0.83021 0.54372,0.88867 -0.87113,0.0585 -3.11619,0.11693 -3.40852,0.12863 -0.29232,0.0117 -1.40316,-0.0292 -1.68964,-0.0351 -0.28648,-0.006 -0.81851,0.0468 -0.99391,-0.12278 -0.1754,-0.16955 -0.0234,-0.24556 0.0409,-0.53203 0.0643,-0.28648 0.12277,-0.48527 -0.076,-0.88283 -0.19878,-0.39756 -1.21023,-2.11059 -1.28623,-2.20998 -0.076,-0.0994 -1.22777,-1.97613 -1.3447,-2.18076 -0.11694,-0.20462 -0.89452,-1.5084 -0.95883,-1.78319 -0.0643,-0.27478 -0.32741,-1.08745 -0.47942,-1.32716 -0.15201,-0.2397 -0.4911,-0.68404 -0.88282,-0.83605 -0.39172,-0.15201 -0.91791,-0.21047 -1.15177,-0.46772 -0.23386,-0.25725 -0.58465,-0.63727 -0.36833,-0.90621 0.21632,-0.26894 1.63703,-0.76589 1.92351,-0.90621 0.28648,-0.14032 1.74226,-0.87113 1.89427,-1.02899 0.15201,-0.15785 1.02314,-0.61388 1.0933,-0.98221 0.0702,-0.36834 0.19878,-0.72497 0.10524,-1.29209 -0.0935,-0.56711 -0.15201,-0.78928 -0.39172,-0.96467 -0.23971,-0.1754 -1.15761,-0.74836 -1.5961,-0.84775 -0.43849,-0.0994 -0.64897,-0.4151 -1.49671,-0.39756 -0.84774,0.0175 -1.97028,0.10524 -2.11644,0.1637 -0.14616,0.0585 -0.6665,0.16955 -0.71912,0.68405 -0.0526,0.51449 -0.076,1.79488 -0.076,2.01705 0,0.22216 0.0643,4.43166 0.0585,4.59536 -0.006,0.1637 0.11108,2.87064 0.12278,3.06358 0.0117,0.19293 0.18124,3.11035 0.21632,3.36759 0.0351,0.25725 0.0468,0.72497 0.30402,1.36224 0.25724,0.63727 0.28063,0.89452 0.63727,1.2687 0.35663,0.37418 0.67819,0.68989 0.64311,0.88282 -0.0351,0.19294 -0.0234,0.1754 -0.53203,0.21632 -0.50865,0.0409 -3.47283,0.11694 -3.82362,0.0877 -0.3508,-0.0292 -1.71304,-0.11108 -1.88258,-0.152 -0.16955,-0.0409 -0.52619,-0.0526 -0.18125,-0.75421 0.34495,-0.70158 0.70159,-2.97003 0.73667,-3.51376 0.0351,-0.54372 0.39756,-3.56637 0.4151,-3.98732 0.0175,-0.42095 -0.0284,-1.31972 -0.0284,-1.31972 z"
           id="path937" /><path
           style="fill:#000000;stroke:#000000;stroke-width:0.965;stroke-linecap:butt;stroke-linejoin:miter;stroke-dasharray:none;stroke-opacity:1"
           d="m 72.417784,175.47916 c 3.819922,0.0165 5.357812,0.0992 5.688541,0.0992 0.330729,0 0.677995,0.19844 0.479558,0.61185 -0.198438,0.41341 -0.529167,1.20716 -0.479558,1.52135 0.04961,0.3142 0.380339,2.18282 0.51263,2.34818 0.132292,0.16536 1.058334,3.95221 1.058334,3.95221 0,0 0.578776,2.39779 0.595312,2.56315 0.01654,0.16537 0.363802,1.96784 0.496094,2.21589 0.132292,0.24805 0.380339,1.32292 0.529167,1.4056 0.148828,0.0827 0.396875,-0.0662 0.595312,-0.79375 0.198438,-0.72761 1.951302,-6.8957 2.10013,-7.44141 0.148828,-0.5457 0.694532,-2.08359 0.777214,-2.53008 0.08268,-0.44648 0.248047,-1.22369 0.165364,-1.90169 -0.08268,-0.67799 0.03307,-0.76068 -0.23151,-1.15755 -0.264583,-0.39688 -0.463021,-0.41341 -0.363802,-0.61185 0.09922,-0.19844 0.04961,-0.26458 0.727604,-0.28112 0.677995,-0.0165 2.827734,-0.11575 4.24987,-0.0496 1.422135,0.0661 2.282031,0.0827 2.38125,0.26458 0.09922,0.1819 -0.09922,0.51263 -0.644922,1.10795 -0.545703,0.59531 -0.644922,0.97565 -0.826823,1.32291 -0.181901,0.34727 -0.744141,1.15756 -1.058333,1.81901 -0.314193,0.66146 -0.677995,1.83555 -0.876433,2.05052 -0.198437,0.21498 -1.587499,4.08451 -1.670182,4.29948 -0.08268,0.21498 -0.826823,2.61276 -1.190625,3.68763 -0.363802,1.07487 -1.07487,3.09232 -1.223698,3.57188 -0.148828,0.47956 -0.777213,2.51354 -0.959114,2.74505 -0.181901,0.23151 -0.181901,0.51263 -0.396875,0.66146 -0.214974,0.14883 -0.529167,0.26458 -1.124479,-0.26458 -0.595313,-0.52917 -1.008724,-0.87644 -1.339454,-0.89297 -0.330729,-0.0165 -0.611848,-0.11576 -0.926041,-0.97565 -0.314193,-0.8599 -0.711068,-2.0836 -0.892969,-2.6293 -0.181901,-0.5457 -2.199349,-5.77122 -2.282031,-6.00274 -0.08268,-0.23151 -0.545703,-1.67018 -0.79375,-2.497 -0.248047,-0.82682 -0.214974,-1.32292 -0.380339,-1.7694 -0.165364,-0.44649 -1.157552,-2.57969 -1.405599,-3.04271 -0.248046,-0.46302 -0.23151,-0.87643 -1.058333,-1.63711 -0.826823,-0.76068 -0.926042,-0.64492 -1.157552,-1.10794 -0.23151,-0.46302 0.926042,-0.66146 0.926042,-0.66146 z"
           id="path939" /><g
           id="g949"
           transform="translate(4.3168486,225.33826)"><path
             style="fill:#000000;stroke:#000000;stroke-width:0.264583px;stroke-linecap:butt;stroke-linejoin:miter;stroke-opacity:1"
             d="m 48.923686,-44.714191 c 2.38538,-5.659432 3.040192,-7.670636 3.227278,-8.138359 0.18709,-0.467719 0.444336,-0.912055 0.420953,-1.403164 -0.02339,-0.491107 -0.30402,-0.53788 0.374176,-1.0056 0.678196,-0.467722 2.408767,-1.707184 2.853103,-2.128133 0.444335,-0.42095 1.052372,-0.678199 1.286234,-1.005602 0.23386,-0.327406 0.982216,-0.09355 1.122532,0.304017 0.140317,0.397565 2.408767,6.64165 2.549083,7.296459 0.140317,0.65481 1.216076,4.279654 1.449935,4.677217 0.233863,0.397563 0.444336,1.099145 0.561266,1.309621 0.116933,0.210474 -0.04677,0.35079 -0.888669,1.169303 -0.841899,0.818515 -2.45554,2.174906 -2.946646,2.642629 -0.491109,0.46772 -0.795128,0.374176 -0.958831,-0.444336 -0.163703,-0.818513 -0.678196,-2.619243 -0.841899,-3.554685 -0.163703,-0.935442 -0.35079,-1.987817 -0.561266,-2.198293 -0.210474,-0.210474 -0.935442,-1.099146 -1.309621,-0.46772 -0.374177,0.631423 -0.88867,2.525696 -0.982216,3.063576 -0.09354,0.537879 -0.210473,2.15152 -0.537879,3.133735 -0.327404,0.982216 -0.257247,1.099146 -1.052372,0.514493 -0.795129,-0.584652 -0.608039,-0.304017 -2.034591,-1.590251 -1.426551,-1.286235 -1.800727,-1.333008 -1.73057,-2.174907 z"
             id="path941" /><path
             style="fill:#000000;stroke:#000000;stroke-width:0.264583px;stroke-linecap:butt;stroke-linejoin:miter;stroke-opacity:1"
             d="m 60.176171,-36.777083 c 1.951302,-2.596224 1.951302,-2.315104 2.116667,-2.827734 0.165364,-0.51263 -0.198438,-0.330729 0.28112,-0.892969 0.479557,-0.56224 0.611848,-0.56224 0.628385,-0.760677 0.01654,-0.198438 0.429948,-0.363802 0.51263,0.198437 0.08268,0.56224 0.264583,0.909506 0.529167,1.620573 0.413412,1.174088 0.744141,1.174088 0.479558,1.653646 -0.264584,0.479557 -0.380339,0.677995 -0.214974,0.74414 0.165364,0.06615 0.463021,0.06615 0.628385,0.06615 0.165365,0 0.08268,0.214974 0.463021,1.141016 0.380339,0.926042 1.157552,2.33164 1.736328,3.274219 0.578776,0.942578 0.959115,1.570963 1.008724,1.868619 0.04961,0.297657 -0.479557,0.694532 -0.429948,0.909506 0.04961,0.214974 0.297656,0.165364 0.529167,-0.06615 0.23151,-0.231511 1.5875,1.422135 1.852083,1.570963 0.264584,0.148828 2.315104,0.711068 1.63711,0.694532 -0.677995,-0.01654 -2.579688,0.03307 -5.771224,0.148828 -3.191537,0.115755 -4.29948,0.09922 -5.291667,0.08268 -0.992188,-0.01654 -1.35599,0.132292 -1.703255,0.28112 -0.347266,0.148828 -1.07487,0.01654 0.06615,-0.463021 1.141015,-0.479557 1.405599,-0.28112 1.488281,-1.802474 0.08268,-1.521354 0.330729,-3.125391 0.115755,-3.522266 -0.214974,-0.396875 -1.124479,-1.488281 -1.157552,-1.719791 -0.03307,-0.231511 -0.380339,-0.248047 -0.181901,-0.876433 0.198437,-0.628385 0.677994,-1.322916 0.677994,-1.322916 z"
             id="path943" /><path
             style="fill:#000000;stroke:#000000;stroke-width:0.264583px;stroke-linecap:butt;stroke-linejoin:miter;stroke-opacity:1"
             d="m 48.336067,-39.704036 c 0.711068,0.810286 0.677995,0.79375 1.124479,0.926042 0.446485,0.132291 1.058334,0.826823 0.992188,1.008724 -0.06615,0.181901 -0.214974,0.363802 -0.28112,0.562239 -0.06615,0.198438 0.132292,0.248047 0.446484,0.314193 0.314193,0.06615 0.611849,0.711068 0.892969,1.107943 0.28112,0.396875 0.694531,0.248046 0.496094,0.975651 -0.198438,0.727604 -0.56224,1.570963 -0.529167,2.149739 0.03307,0.578776 -0.396875,1.223698 -0.479557,1.405599 -0.08268,0.181901 -0.01654,1.570964 0.214974,2.083594 0.23151,0.51263 -0.363802,0.496094 0.545703,1.058333 0.909505,0.56224 2.149739,0.876432 0.777213,0.942578 -1.372526,0.06615 -6.06888,0.148828 -7.011458,0.09922 -0.942578,-0.04961 -2.315104,0.03307 -3.108854,-0.06615 -0.79375,-0.09922 -1.554427,-0.330729 -0.892969,-0.959114 0.661459,-0.628386 0.926042,-0.826823 1.5875,-1.670183 0.661459,-0.843359 0.959115,-0.413411 1.819011,-2.33164 0.859896,-1.918229 1.918229,-3.654557 1.918229,-4.233334 0,-0.578776 0.08268,-2.000911 0.08268,-2.480468 0,-0.479558 -0.248047,-0.760677 0.03307,-1.091406 0.28112,-0.33073 0.496094,-0.694532 0.677995,-0.694532 0.181901,0 0.694531,0.892969 0.694531,0.892969 z"
             id="path945" /><path
             style="fill:#000000;stroke:#000000;stroke-width:0.264583px;stroke-linecap:butt;stroke-linejoin:miter;stroke-opacity:1"
             d="m 48.035016,-44.363401 c 5.448956,4.747376 5.285253,4.653833 5.752976,4.513516 0.467722,-0.140316 1.169305,0.04677 0.841899,0.11693 -0.327406,0.07016 -1.028989,0.140317 -0.771742,0.537879 0.257249,0.397563 0.701582,0.982216 1.052375,1.192692 0.35079,0.210473 0.420949,0.304017 0.467722,-0.233863 0.04677,-0.537879 -0.257249,-0.608039 -0.233862,-0.865285 0.02339,-0.257247 0.257249,-0.327403 0.280633,-0.631423 0.02339,-0.304019 0.257249,-1.496711 0.397565,-0.701582 0.140317,0.795126 -0.05847,0.701582 0.09354,0.876977 0.152008,0.175395 0.175394,0.491109 0.08185,0.643117 -0.09355,0.152009 -0.18709,0.105238 -0.18709,0.42095 0,0.315711 -0.08185,0.68989 0.163703,0.701582 0.245555,0.01169 0.222168,0.105238 0.572958,-0.292325 0.350793,-0.397565 0.806821,-0.748355 0.865286,-0.982215 0.05847,-0.233863 0.292327,-0.315714 -0.01169,-0.432644 -0.304019,-0.11693 -0.713277,0.07016 -0.502801,-0.09354 0.210474,-0.163703 0.385871,-0.385871 0.584653,-0.280633 0.198781,0.105238 0.187087,0.467719 0.80682,-0.04677 0.619731,-0.514493 3.051884,-2.677705 3.893783,-3.49622 0.841899,-0.818513 1.952736,-1.859193 1.251154,-0.596345 -0.701583,1.262848 -0.947137,1.882579 -1.028986,2.128134 -0.08185,0.245554 -0.30402,1.555173 -0.76005,2.291837 -0.456028,0.73666 -1.192689,1.508402 -1.81242,1.800727 -0.619731,0.292325 -1.555176,0.643118 -1.765649,0.912059 -0.210476,0.268938 -0.479414,0.631422 0.315711,0.198781 0.795126,-0.432644 2.701092,-1.742263 1.204384,-0.03508 -1.496708,1.707184 -2.864795,2.712786 -2.981725,3.601458 -0.116932,0.888672 -0.100938,2.356882 -0.249766,2.638002 -0.148828,0.281119 -0.438216,0.14056 -0.471289,0.93431 -0.03307,0.79375 -0.181901,2.158007 -0.03307,2.414322 0.148828,0.256316 0.46302,0.578776 0.380338,0.926042 -0.08268,0.347266 -0.115755,0.314193 -0.256315,0.429948 -0.14056,0.115755 -0.14056,0.124023 -0.429948,0.02481 -0.289388,-0.09922 -0.429948,-0.338998 -0.338997,-0.570508 0.09095,-0.231511 0.206706,-0.314193 0.256315,-0.603581 0.04961,-0.289388 0.107487,-1.281575 0.07441,-1.595768 -0.03307,-0.314193 0.09095,-1.000456 -0.0083,-1.174089 -0.09922,-0.173632 -0.405143,0.01654 -0.545703,-0.471289 -0.14056,-0.487825 0.0083,-1.405599 -0.02479,-1.835546 -0.03307,-0.429948 -0.272851,-1.72806 -1.033528,-2.248959 -0.760677,-0.520898 -1.273308,-1.30638 -1.678451,-1.72806 -0.405143,-0.421679 -0.51263,-0.487825 -0.702799,-0.8847 -0.190169,-0.396875 -0.570508,-0.760677 0.297656,-0.28112 0.868164,0.479557 0.942578,0.454753 1.240234,0.644922 0.297657,0.190169 1.413868,0.338997 0.14056,-0.396875 -1.273307,-0.735872 -2.372981,-1.107943 -2.61276,-1.44694 -0.239779,-0.338998 -1.182357,-1.240235 -1.488281,-1.967839 -0.305925,-0.727604 -0.438216,-1.521354 -0.719336,-2.290299 -0.28112,-0.768945 -0.305925,-1.455208 -0.545703,-1.620573 -0.239779,-0.165365 -0.42168,-0.595313 -0.214974,-0.446484 0.206705,0.148828 0.39348,0.301572 0.39348,0.301572 z"
             id="path947" /></g></g></mask><filter
       id="mask-powermask-path-effect953_inverse"
       inkscape:label="filtermask-powermask-path-effect953"
       style="color-interpolation-filters:sRGB"
       height="100"
       width="100"
       x="-50"
       y="-50"><feColorMatrix
         id="mask-powermask-path-effect953_primitive1"
         values="1"
         type="saturate"
         result="fbSourceGraphic" /><feColorMatrix
         id="mask-powermask-path-effect953_primitive2"
         values="-1 0 0 0 1 0 -1 0 0 1 0 0 -1 0 1 0 0 0 1 0 "
         in="fbSourceGraphic" /></filter></defs><g
     inkscape:label="Camada 1"
     inkscape:groupmode="layer"
     id="layer1"
     transform="translate(-43.723793,-165.9845)"><rect
       style="fill:#ffffff;stroke:none;stroke-width:0.493385;stroke-linecap:round;stroke-opacity:1;paint-order:markers fill stroke"
       id="rect1788-0"
       width="126.17368"
       height="34.265823"
       x="43.723793"
       y="165.9845"
       mask="url(#mask-powermask-path-effect953)"
       inkscape:path-effect="#path-effect953"
       d="M 43.723793,165.9845 H 169.89748 v 34.26582 H 43.723793 Z" /><path
       style="display:none;fill:#ff00ff;stroke-width:0;stroke-dasharray:none"
       d="m 59.490618,200.36772 c -0.0222,-0.10914 -0.0646,-1.15094 -0.0942,-2.3151 -0.02961,-1.16417 -0.167093,-2.71198 -0.30553,-3.43959 -0.138437,-0.7276 -0.383457,-1.56104 -0.54449,-1.85208 -0.161032,-0.29104 -0.640513,-0.85998 -1.065513,-1.26432 -0.772727,-0.73515 -0.772727,-0.73515 -1.096693,0.79375 -0.178181,0.8409 -0.451071,1.85781 -0.606422,2.2598 -0.205403,0.53151 -0.195488,1.04152 0.03634,1.86954 0.204987,0.73214 0.571149,1.2952 1.025651,1.57717 0.44018,0.27308 0.557124,0.44819 0.309976,0.46416 -0.263454,0.017 -0.21898,0.0963 0.132291,0.23581 0.344979,0.13703 -0.161538,0.22825 -1.455208,0.26208 -1.091406,0.0285 -2.936875,0.0583 -4.101042,0.066 -1.164166,0.008 -2.445635,-0.0723 -2.847707,-0.17793 -0.462775,-0.12157 -0.878498,-0.0697 -1.132874,0.14144 -0.317039,0.26312 -0.623398,0.26712 -1.451773,0.0189 -0.577466,-0.173 -1.049938,-0.4661 -1.049938,-0.65131 0,-0.18522 0.327422,-0.63923 0.727605,-1.00893 0.400182,-0.36969 0.935963,-0.74542 1.190625,-0.83494 0.254661,-0.0895 0.463021,-0.38118 0.463021,-0.64813 0,-0.26694 0.342654,-0.95528 0.761453,-1.52965 0.4188,-0.57438 1.082895,-1.81822 1.475767,-2.76411 0.392873,-0.94588 0.821285,-2.13651 0.952027,-2.64583 0.130741,-0.50932 0.240552,-1.40824 0.244024,-1.9976 0.0035,-0.58936 0.149187,-1.21444 0.323812,-1.38907 0.174625,-0.17462 0.531812,-0.3175 0.79375,-0.3175 0.261937,0 0.478897,0.0893 0.482133,0.19844 0.0032,0.10914 0.248528,0.49609 0.545093,0.8599 0.539209,0.66145 0.539209,0.66145 0.149091,-0.14144 -0.214565,-0.44159 -0.475769,-1.27503 -0.580454,-1.85208 -0.104684,-0.57706 -0.357882,-1.38011 -0.562662,-1.78457 -0.204779,-0.40445 -0.295886,-0.85905 -0.202459,-1.01022 0.09343,-0.15117 0.340039,-0.20955 0.548028,-0.12974 0.241008,0.0925 0.482121,-0.11688 0.664803,-0.57727 0.157654,-0.39732 0.495094,-1.19864 0.749869,-1.78072 0.254775,-0.58209 0.968698,-2.33826 1.586497,-3.90261 0.617799,-1.56435 1.184587,-2.84427 1.25953,-2.84427 0.07494,0 0.06253,0.36865 -0.02759,0.81923 -0.09012,0.45058 -0.587625,1.95069 -1.105577,3.33357 -0.517952,1.38289 -1.046716,2.71088 -1.175031,2.95109 -0.128315,0.2402 -0.367482,0.85345 -0.531482,1.36278 -0.296534,0.92092 -0.289111,0.93445 1.34193,2.44739 0.902062,0.83675 1.787926,1.52136 1.968586,1.52136 0.198483,0 0.488742,-0.81148 0.733454,-2.05052 0.22274,-1.12779 0.571777,-2.64584 0.775639,-3.37344 0.307451,-1.09733 0.484628,-1.33648 1.039004,-1.40244 0.367591,-0.0437 0.798842,0.0777 0.958337,0.26989 0.159495,0.19218 0.667924,1.71625 1.129843,3.38682 0.461919,1.67057 0.8683,3.06852 0.903068,3.10657 0.03477,0.038 0.58771,-0.34555 1.22876,-0.85245 0.641049,-0.50689 1.229957,-1.19287 1.308683,-1.52438 0.08772,-0.36941 0.377241,-0.63652 0.747833,-0.68996 0.446488,-0.0644 0.55771,-0.20283 0.425112,-0.52917 -0.09877,-0.24308 -0.296282,-0.79915 -0.438915,-1.23571 -0.142632,-0.43657 -0.362159,-1.03188 -0.487836,-1.32292 -0.125677,-0.29104 -0.45786,-1.36261 -0.738184,-2.38125 -0.280325,-1.01865 -0.73323,-2.36331 -1.006456,-2.98815 -0.435348,-0.99558 -0.578567,-1.11727 -1.158234,-0.98415 -0.488155,0.11211 -0.559145,0.084 -0.270953,-0.10712 0.321709,-0.2134 0.275096,-0.30509 -0.264583,-0.52043 -0.571011,-0.22785 -0.587173,-0.26594 -0.125922,-0.29677 0.529166,-0.0354 0.529166,-0.0354 0,-0.28641 -0.414146,-0.19648 -0.32788,-0.22508 0.396875,-0.1316 0.509322,0.0657 0.783902,0.0603 0.610176,-0.012 -0.173727,-0.0723 -0.253855,-0.29308 -0.178064,-0.49059 0.07579,-0.19751 -0.0015,-0.61931 -0.171666,-0.93735 -0.204745,-0.38257 -0.220609,-0.66711 -0.04688,-0.84084 0.173729,-0.17373 0.49495,0.44025 0.949241,1.81435 0.377659,1.14231 1.312934,3.9224 2.07839,6.17797 0.765455,2.25557 1.488647,4.25181 1.607094,4.43609 0.118446,0.18427 0.344588,0.25517 0.502539,0.15755 0.171402,-0.10593 0.211071,-0.0543 0.09839,0.12798 -0.103833,0.168 -0.05964,0.30546 0.09821,0.30546 0.175004,0 0.116594,0.32952 -0.149682,0.84444 -0.240173,0.46444 -0.535466,1.1889 -0.656208,1.6099 -0.189902,0.66215 -0.166079,0.7211 0.176512,0.43678 0.236123,-0.19597 0.490231,-0.23172 0.629299,-0.0885 0.128289,0.13207 0.48037,0.89498 0.782402,1.69535 0.302033,0.80036 0.549209,1.70852 0.549283,2.01812 7.2e-5,0.3096 0.167045,0.70144 0.371049,0.87075 0.204002,0.16931 0.448109,0.61539 0.542457,0.9913 0.09435,0.37591 0.631576,1.37607 1.193842,2.22258 0.562266,0.84651 1.175364,1.99258 1.362435,2.54682 0.187074,0.55424 0.7484,1.44514 1.247394,1.97976 0.498994,0.53463 1.189606,1.04291 1.534692,1.12952 0.345085,0.0866 0.62743,0.3338 0.62743,0.54931 0,0.25276 -0.26294,0.39183 -0.740833,0.39183 -0.407458,0 -0.901176,-0.14882 -1.097148,-0.33072 -0.285054,-0.26459 -0.318971,-0.26459 -0.169595,0 0.140367,0.24862 -0.260541,0.34301 -1.614829,0.38023 -0.990854,0.0272 -2.662891,0.0416 -3.715639,0.032 -1.256083,-0.0115 -1.855892,0.0766 -1.744802,0.25637 0.113546,0.18372 -0.170947,0.20632 -0.864039,0.0686 -0.568328,-0.1129 -1.47918,-0.23007 -2.024116,-0.26038 -0.544935,-0.0303 -1.062016,-0.12633 -1.149067,-0.21338 -0.08705,-0.0871 0.200063,-0.34358 0.638031,-0.57006 0.537522,-0.27796 0.859927,-0.69273 0.992077,-1.27628 0.107674,-0.47547 0.166862,-1.457 0.131528,-2.18117 -0.04038,-0.82769 -0.337871,-1.83625 -0.801036,-2.71571 l -0.736793,-1.39904 -0.942596,1.04334 c -0.518428,0.57384 -1.068917,1.49825 -1.22331,2.05425 -0.154394,0.55601 -0.281379,1.27178 -0.282191,1.59062 -8.11e-4,0.31883 -0.120538,0.65328 -0.266059,0.74321 -0.145521,0.09 -0.264583,0.65406 -0.264583,1.25361 0,0.59954 0.145332,1.49198 0.322961,1.98321 0.269805,0.74613 0.258918,0.93363 -0.06615,1.13921 -0.214009,0.13534 -0.537935,0.24791 -0.719836,0.25013 -0.181901,0.002 -0.348897,-0.0853 -0.371102,-0.19438 z m -6.247337,-2.19566 c 0.685037,-0.19025 1.146977,-0.18958 1.505298,0.002 0.28433,0.15217 0.57055,0.18705 0.636044,0.0775 0.06549,-0.10953 -0.0099,-0.82205 -0.167493,-1.58338 -0.212039,-1.0242 -0.205287,-1.71236 0.02596,-2.64583 0.171895,-0.69389 0.387938,-1.7624 0.480094,-2.37448 0.15082,-1.0017 0.08508,-1.19536 -0.658152,-1.93858 -0.454142,-0.45407 -0.825711,-1.05042 -0.825711,-1.32514 0,-0.27473 -0.265629,-0.64167 -0.590286,-0.81542 -0.324657,-0.17375 -0.810441,-0.59579 -1.07952,-0.93787 -0.269078,-0.34208 -0.610757,-0.54686 -0.759286,-0.45506 -0.148528,0.0918 -0.203039,0.50196 -0.121135,0.91148 0.0819,0.40952 -0.02963,1.43006 -0.247846,2.26786 -0.21822,0.8378 -0.494087,1.64916 -0.613039,1.80301 -0.118952,0.15386 -0.354933,0.69112 -0.524402,1.19391 -0.16947,0.50279 -0.743208,1.54588 -1.274975,2.31798 -0.878433,1.27545 -0.944499,1.49332 -0.722451,2.3825 0.178003,0.7128 0.424096,1.0283 0.905857,1.16137 0.363802,0.10048 1.197239,0.1939 1.852083,0.2076 0.654844,0.0137 1.635375,-0.0986 2.178957,-0.24959 z m 15.430575,-0.0165 c 1.15606,-0.0145 2.548411,-0.12021 3.094114,-0.23495 0.562018,-0.11817 0.992188,-0.1061 0.992188,0.0278 0,0.13006 0.193172,0.23646 0.42927,0.23646 0.354444,0 0.370983,-0.0702 0.09487,-0.40293 -0.283694,-0.34183 -0.258516,-0.37553 0.166042,-0.22221 0.423678,0.15299 0.403736,0.0746 -0.129989,-0.51141 -0.34674,-0.38066 -0.763458,-0.66762 -0.926042,-0.63768 -0.162587,0.0299 -0.265692,-0.18368 -0.229129,-0.47473 0.03656,-0.29104 -0.07179,-0.97565 -0.240787,-1.52135 -0.168995,-0.5457 -0.39855,-0.99219 -0.510122,-0.99219 -0.11157,0 -0.405649,-0.38695 -0.653508,-0.85989 -0.247859,-0.47295 -0.73311,-1.42545 -1.078338,-2.11667 -0.345226,-0.69122 -0.746466,-1.25676 -0.891643,-1.25676 -0.145175,0 -0.263957,-0.38298 -0.263957,-0.85105 0,-0.46808 -0.195103,-1.36193 -0.433564,-1.98633 -0.346591,-0.90753 -0.505818,-1.0753 -0.79375,-0.83634 -0.198102,0.16441 -0.360186,0.41604 -0.360186,0.55918 0,0.14314 -0.357187,0.71125 -0.79375,1.26245 -0.436562,0.55121 -0.79375,1.12797 -0.79375,1.2817 0,0.15373 -0.159386,0.37472 -0.354192,0.49109 -0.194806,0.11637 -0.481619,0.4453 -0.637363,0.73095 -0.223699,0.41029 -0.140886,0.79927 0.394312,1.85209 0.372616,0.73299 0.709802,1.77562 0.749303,2.31695 0.0395,0.54133 0.146644,1.21999 0.238096,1.50814 0.09145,0.28813 -0.01845,0.88111 -0.244231,1.31772 -0.22578,0.43661 -0.410508,0.93155 -0.410508,1.09986 0,0.16832 0.184778,0.23513 0.410617,0.14846 0.257333,-0.0987 0.343734,-0.0494 0.231449,0.13234 -0.116922,0.18918 -0.0017,0.23356 0.331728,0.12774 0.280991,-0.0892 1.456761,-0.174 2.612821,-0.18847 z m -7.691345,-6.04444 c 0.09034,-0.28465 0.544852,-0.83521 1.010017,-1.22347 0.465165,-0.38827 0.939837,-0.86773 1.054828,-1.06547 0.165112,-0.28394 0.03249,-0.32422 -0.630748,-0.19157 -0.650804,0.13016 -0.812578,0.0845 -0.718778,-0.20293 0.06657,-0.20399 0.820228,-0.7962 1.674788,-1.31603 0.854561,-0.51983 1.7725,-1.23814 2.039867,-1.59625 0.267366,-0.35811 0.651877,-1.27946 0.854469,-2.04745 0.342324,-1.29769 0.337029,-1.37213 -0.07495,-1.05362 -0.243816,0.18849 -1.217208,0.99938 -2.163093,1.80197 -0.945886,0.80258 -1.822524,1.62151 -1.948084,1.81983 -0.125561,0.19832 -0.452983,0.58527 -0.727605,0.85989 -0.295105,0.29511 -0.870162,0.49932 -1.40609,0.49932 -0.708648,0 -1.06997,-0.19671 -1.653646,-0.90026 -0.410777,-0.49514 -1.81843,-1.83015 -3.128117,-2.96669 -1.309688,-1.13655 -2.246171,-1.89229 -2.081073,-1.67944 0.165097,0.21286 0.386357,0.78963 0.491688,1.28171 0.105332,0.49209 0.446986,1.38258 0.759232,1.97888 0.425382,0.81234 0.982049,1.31296 2.22029,1.99673 0.908914,0.50191 1.652571,1.06993 1.652571,1.26227 0,0.19234 -0.186421,0.34971 -0.414269,0.34971 -0.227848,0 -0.674332,-0.13824 -0.992187,-0.3072 -0.317856,-0.16897 0.136456,0.47737 1.009581,1.4363 1.175225,1.29072 1.771829,1.74842 2.297275,1.76242 0.482453,0.0129 0.762383,-0.14686 0.874037,-0.49865 z m 20.692581,5.93314 c -0.408297,-0.3592 -1.031777,-0.65309 -1.385511,-0.65309 -0.476084,0 -0.735775,-0.22338 -0.999705,-0.8599 -0.196101,-0.47294 -0.436594,-1.26558 -0.534429,-1.76143 -0.09784,-0.49584 -0.578308,-1.86506 -1.067718,-3.0427 -0.489408,-1.17765 -1.255255,-3.15321 -1.701877,-4.39014 -0.446622,-1.23693 -0.887127,-2.71073 -0.978897,-3.27512 -0.09177,-0.56439 -0.44902,-1.66419 -0.793883,-2.44398 -0.344863,-0.7798 -0.956857,-1.86584 -1.359987,-2.41342 -0.403133,-0.54758 -1.025721,-1.24446 -1.38353,-1.54861 -0.406051,-0.34516 -0.589712,-0.71159 -0.488657,-0.97493 0.138026,-0.35969 0.622724,-0.4102 3.285689,-0.34241 1.71808,0.0437 3.629795,0.0955 4.248258,0.11503 0.767766,0.0243 1.12448,0.15245 1.12448,0.40409 0,0.20272 -0.172025,0.43458 -0.382278,0.51526 -0.210251,0.0807 -0.454626,0.53991 -0.543055,1.0205 -0.1041,0.56577 0.06801,1.66659 0.488233,3.12276 0.356955,1.23692 0.839454,3.00271 1.072221,3.92397 0.232768,0.92126 0.423212,1.85544 0.423212,2.07595 0,0.22051 0.195789,1.07409 0.435089,1.89686 0.435089,1.49593 0.435089,1.49593 0.764082,0.3053 0.180946,-0.65484 0.648901,-2.38125 1.039897,-3.83646 0.390999,-1.45521 0.894199,-3.18161 1.118225,-3.83646 0.224022,-0.65484 0.497983,-1.72351 0.608795,-2.37482 0.120508,-0.70829 0.09129,-1.42603 -0.07269,-1.78594 -0.150792,-0.33095 -0.374121,-0.60174 -0.496284,-0.60174 -0.122161,0 -0.222113,-0.17859 -0.222113,-0.39687 0,-0.22349 0.260086,-0.41413 0.595313,-0.43636 0.327421,-0.0217 2.295977,-0.0634 4.37457,-0.0926 2.144663,-0.0301 3.845957,0.0549 3.933471,0.19646 0.08482,0.13723 -0.335926,0.74894 -0.934987,1.35933 -0.599059,0.6104 -1.0892,1.21722 -1.0892,1.34848 0,0.13127 -0.470514,1.01973 -1.045586,1.97436 -0.733965,1.2184 -1.770197,3.94362 -3.476908,9.14403 -1.337228,4.07458 -2.611575,7.61669 -2.83188,7.87136 -0.220306,0.25466 -0.530932,0.45925 -0.69028,0.45465 -0.159345,-0.005 -0.623782,-0.30225 -1.032079,-0.66145 z m 3.097112,-5.61403 c 0.977337,-3.01956 2.008199,-6.12578 2.2908,-6.90271 0.282601,-0.77693 0.513821,-1.64014 0.513821,-1.91823 0,-0.27809 0.119062,-0.50562 0.264583,-0.50562 0.145521,0 0.264584,-0.15435 0.264584,-0.34299 0,-0.18865 0.41367,-0.99232 0.919268,-1.78594 0.5056,-0.79362 0.922319,-1.61587 0.926042,-1.82723 0.0037,-0.21135 0.387318,-0.7769 0.852426,-1.25677 0.845651,-0.87249 0.845651,-0.87249 -2.522852,-0.87249 -3.248351,0 -3.358732,0.0182 -3.094609,0.51177 0.15064,0.28148 0.273891,1.04084 0.273891,1.68748 0,0.64664 -0.196916,1.63674 -0.437592,2.20021 -0.240678,0.56348 -1.006636,3.14976 -1.702133,5.74729 -0.695497,2.59754 -1.326883,4.78514 -1.40308,4.86133 -0.0762,0.0762 -0.301419,0.076 -0.500497,-2.6e-4 -0.199075,-0.0764 -0.562631,-0.89477 -0.8079,-1.81863 -0.245268,-0.92394 -0.564276,-2.33466 -0.708906,-3.13502 -0.144629,-0.80037 -0.570333,-2.5863 -0.946007,-3.96875 -0.375674,-1.38245 -0.79875,-2.82266 -0.940173,-3.20047 -0.14142,-0.37781 -0.174318,-1.03265 -0.0731,-1.45521 0.101213,-0.42255 0.301249,-0.91711 0.444521,-1.09901 0.20552,-0.26093 -0.455009,-0.33073 -3.129759,-0.33073 -2.754815,0 -3.313295,0.062 -2.97964,0.33073 0.225841,0.1819 0.778288,0.87911 1.227662,1.54936 0.449373,0.67024 1.120788,1.90545 1.492033,2.7449 0.371245,0.83945 0.674992,1.80321 0.674992,2.14168 0,0.33848 0.417755,1.78218 0.928348,3.20822 0.510591,1.42605 1.041512,2.83094 1.179825,3.12199 0.138311,0.29104 0.551125,1.28677 0.917361,2.21274 0.366236,0.92596 0.739222,2.0745 0.828855,2.55229 0.119983,0.63955 0.488087,1.09997 1.395439,1.74539 0.677854,0.48217 1.272151,0.97075 1.320657,1.08573 0.04851,0.11498 0.238038,0.20905 0.42118,0.20905 0.1998,0 1.043723,-2.19587 2.109964,-5.4901 z m 5.913475,5.01388 c -0.836745,-0.0436 -1.521354,-0.20163 -1.521354,-0.35108 0,-0.14945 0.357187,-0.62892 0.79375,-1.06549 0.436562,-0.43656 0.79375,-0.86264 0.79375,-0.94685 0,-0.0842 0.276947,-0.52154 0.615437,-0.97184 0.338492,-0.4503 0.868584,-1.47357 1.177988,-2.27393 0.309401,-0.80037 0.870151,-2.57671 1.246111,-3.94742 0.37596,-1.37072 1.107596,-3.45431 1.625857,-4.63021 0.518258,-1.1759 1.169963,-3.02463 1.448234,-4.1083 0.278267,-1.08366 0.65365,-2.06411 0.834178,-2.17876 0.18053,-0.11465 0.558689,-0.21028 0.840351,-0.21251 0.281662,-0.002 0.781087,-0.25674 1.109832,-0.56558 0.415207,-0.39007 0.791417,-0.51291 1.232097,-0.40231 0.56527,0.14188 0.8435,0.80106 2.55424,6.05163 1.05593,3.24083 2.27902,6.84492 2.71797,8.00908 0.43896,1.16417 1.02092,2.43041 1.29324,2.81388 0.27232,0.38346 0.73153,1.2487 1.02046,1.92275 0.3497,0.81581 0.83741,1.40967 1.45883,1.77632 0.51343,0.30293 0.93351,0.65808 0.93351,0.78923 0,0.13115 -0.80368,0.24959 -1.78594,0.2632 -0.98227,0.0136 -3.06586,0.0441 -4.63021,0.0677 -2.16512,0.0327 -2.84427,-0.0384 -2.84427,-0.29764 0,-0.18732 0.17406,-0.40737 0.3868,-0.48901 0.21275,-0.0816 0.47246,-0.40532 0.57715,-0.7193 0.10468,-0.31398 0.1602,-0.92806 0.12336,-1.36462 -0.0368,-0.43656 -0.43877,-1.78311 -0.89319,-2.99233 -0.78389,-2.08595 -0.86085,-2.19016 -1.50235,-2.03437 -0.37188,0.0903 -1.092862,0.36531 -1.602185,0.61108 -0.83956,0.40514 -0.982242,0.64454 -1.527836,2.56354 -0.354039,1.24525 -0.535808,2.41712 -0.441516,2.84647 0.08815,0.40139 0.384294,0.84969 0.658088,0.99622 0.273796,0.14653 0.441301,0.41343 0.372234,0.59311 -0.08831,0.22976 -0.929383,0.3267 -2.834418,0.3267 -1.489863,0 -3.393453,-0.0357 -4.230198,-0.0794 z m 5.52604,-2.63366 c 0.02233,-1.27317 0.223414,-2.5506 0.530873,-3.37241 0.418063,-1.11744 0.679593,-1.41137 1.683856,-1.89246 0.653905,-0.31325 1.590382,-0.61091 2.081062,-0.66146 0.59591,-0.0614 0.96254,0.0399 1.10416,0.30496 0.11661,0.21829 0.57899,1.34938 1.02751,2.51355 0.44852,1.16416 0.81485,2.57097 0.81407,3.12624 -8e-4,0.55527 -0.12468,1.23988 -0.27532,1.52136 -0.26354,0.49243 -0.1568,0.51177 2.82425,0.51177 3.09814,0 3.09814,0 2.52285,-0.61236 -0.31641,-0.33681 -0.57529,-0.78975 -0.57529,-1.00654 0,-0.21679 -0.37436,-0.98302 -0.83191,-1.70274 -0.45755,-0.71971 -1.15433,-2.142 -1.5484,-3.16065 -0.39407,-1.01865 -1.59212,-4.56076 -2.66235,-7.87135 -1.07023,-3.3106 -2.05131,-6.01928 -2.18019,-6.01928 -0.12887,0 -0.53704,0.23813 -0.907035,0.52917 -0.369998,0.29104 -0.944459,0.52917 -1.276577,0.52917 -0.512503,0 -0.647923,0.20548 -0.895154,1.35828 -0.160216,0.74706 -0.813512,2.68183 -1.451772,4.29948 -0.638262,1.61766 -1.40603,3.69287 -1.706152,4.61159 -0.300125,0.91872 -0.627272,2.10531 -0.726993,2.63687 -0.09972,0.53157 -0.416031,1.5063 -0.702908,2.16607 -0.286877,0.65977 -0.677233,1.37839 -0.867453,1.59694 -0.190222,0.21855 -0.468728,0.72054 -0.618905,1.11553 -0.21359,0.56179 -0.184679,0.80654 0.132776,1.124 0.294455,0.29445 0.96335,0.40554 2.437445,0.40479 l 2.031621,-0.001 0.03594,-2.04949 z m 18.088021,2.25412 c 0,-0.25694 0.17009,-0.46715 0.37798,-0.46715 0.20788,0 0.55067,-0.1727 0.76174,-0.38377 0.21107,-0.21107 0.45868,-0.89568 0.55025,-1.52135 0.0916,-0.62568 0.22508,-4.14392 0.2967,-7.81832 l 0.13023,-6.68073 h -2.32054 c -1.51555,0 -2.98981,0.18547 -4.24986,0.53464 -1.06112,0.29406 -2.04099,0.46562 -2.17749,0.38126 -0.1365,-0.0844 -0.24818,-0.282 -0.24818,-0.43921 0,-0.15721 0.50602,-1.1569 1.12448,-2.22153 0.86909,-1.49608 1.33676,-2.02281 2.05917,-2.31924 0.80931,-0.33209 1.3062,-0.33444 3.70417,-0.0175 1.52321,0.20129 4.22578,0.36857 6.00571,0.37172 1.77993,0.003 4.10165,-0.12145 5.15938,-0.2769 1.05772,-0.15546 2.50973,-0.39634 3.22668,-0.53531 0.80145,-0.15534 1.39811,-0.1581 1.54904,-0.007 0.15094,0.15093 -0.12148,0.94384 -0.70723,2.05854 -0.524,0.99717 -1.21785,1.97861 -1.54189,2.18098 -0.39509,0.24674 -1.28877,0.35309 -2.71298,0.32286 -1.1681,-0.0248 -2.7666,0.0331 -3.55223,0.12861 l -1.42842,0.17369 0.15453,5.58699 c 0.1305,4.71788 0.24043,5.83275 0.70668,7.16682 0.30368,0.86891 0.49587,1.72649 0.42709,1.90573 -0.0688,0.17925 0.22623,0.6215 0.65559,0.98278 0.42936,0.36128 0.78065,0.78362 0.78065,0.93854 0,0.17092 -0.80619,0.29999 -2.05052,0.32828 -1.12779,0.0256 -3.09232,0.0573 -4.36563,0.0703 -2.04519,0.0209 -2.3151,-0.0308 -2.3151,-0.44349 z m 7.02646,-0.79061 c -0.22653,-0.32342 -0.41188,-0.84466 -0.41188,-1.15831 0,-0.31365 -0.17885,-0.99833 -0.39745,-1.52151 -0.2186,-0.52318 -0.46538,-2.05577 -0.54841,-3.40575 -0.083,-1.34998 -0.17197,-4.18001 -0.19767,-6.28895 l -0.0467,-3.83443 1.7196,-0.33341 c 1.03642,-0.20095 2.56745,-0.27277 3.85368,-0.18077 1.6005,0.11448 2.20544,0.065 2.41953,-0.19778 0.15701,-0.19273 0.6609,-0.99043 1.11977,-1.77267 0.655,-1.11657 0.73207,-1.37878 0.35859,-1.22004 -0.26164,0.11122 -0.95197,0.22784 -1.53405,0.25916 -0.58208,0.0313 -1.59412,0.15095 -2.24896,0.26583 -0.65484,0.11489 -2.91703,0.19676 -5.02708,0.18193 -2.11006,-0.0148 -5.00902,-0.1431 -6.44214,-0.28505 -1.7645,-0.17478 -2.79896,-0.17003 -3.20441,0.0147 -0.32931,0.15004 -0.78752,0.64817 -1.01825,1.10696 -0.23073,0.45879 -0.66554,1.20512 -0.96624,1.6585 -0.54673,0.82434 -0.54673,0.82434 1.50726,0.3328 1.12969,-0.27035 2.82789,-0.48061 3.77378,-0.46724 0.94588,0.0134 2.00033,0.10307 2.34322,0.19933 0.62342,0.17501 0.62342,0.17501 0.59818,7.16595 -0.0139,3.84502 -0.0994,7.41556 -0.1901,7.93455 -0.0907,0.51898 -0.33284,1.2115 -0.53814,1.53892 -0.37328,0.59531 -0.37328,0.59531 2.55824,0.59531 2.93152,0 2.93152,0 2.51964,-0.58804 z m 6.66573,1.17015 c -1.06812,-0.0557 -1.52136,-0.18664 -1.52136,-0.4395 0,-0.19808 0.32743,-0.64548 0.72761,-0.99422 0.40018,-0.34874 0.93164,-0.9844 1.18102,-1.41259 0.24939,-0.42818 0.73486,-1.37382 1.07884,-2.10142 0.34398,-0.72761 0.84446,-2.15636 1.11218,-3.175 0.26771,-1.01865 1.16836,-3.63802 2.00143,-5.82084 0.83307,-2.18281 1.59779,-4.47631 1.69939,-5.09668 0.1125,-0.68699 0.37546,-1.23001 0.67265,-1.38906 0.26836,-0.14362 0.71543,-0.26113 0.99348,-0.26113 0.27806,0 0.72106,-0.23813 0.98445,-0.52917 0.26339,-0.29104 0.69581,-0.52917 0.96094,-0.52917 0.26514,0 0.64685,0.2679 0.84826,0.59532 0.2014,0.32742 1.17589,3.09562 2.16552,6.15156 0.98963,3.05594 2.14238,6.44922 2.56167,7.54062 0.41929,1.09141 1.05021,2.42123 1.40204,2.95516 0.35183,0.53392 0.71691,1.27842 0.81128,1.65442 0.0944,0.37601 0.52491,0.98096 0.95676,1.34433 0.43184,0.36337 0.89509,0.66068 1.02945,0.66068 0.13436,0 0.24428,0.17859 0.24428,0.39687 0,0.3117 -0.38331,0.40097 -1.78593,0.41596 -0.98227,0.0105 -3.00633,0.0434 -4.49792,0.0732 -2.28598,0.0456 -2.71198,-0.01 -2.71198,-0.35231 0,-0.22352 0.23813,-0.55512 0.52917,-0.73687 0.38936,-0.24316 0.52916,-0.61702 0.52916,-1.41505 0,-0.59652 -0.38695,-2.08536 -0.85989,-3.30853 -0.80625,-2.0852 -0.90117,-2.21448 -1.52136,-2.07203 -0.3638,0.0836 -1.07687,0.35302 -1.5846,0.59879 -0.70035,0.33902 -1.0328,0.74571 -1.37748,1.68505 -0.24989,0.68099 -0.53263,1.82831 -0.62831,2.54959 -0.14862,1.12036 -0.0925,1.3929 0.3853,1.87068 0.30759,0.30759 0.55918,0.70809 0.55908,0.88999 -1.4e-4,0.24306 -0.71903,0.33073 -2.71198,0.33073 -1.49149,0 -3.39641,-0.0357 -4.23315,-0.0794 z m 5.31549,-1.53914 c -0.20255,-0.73359 -0.15652,-1.36677 0.19715,-2.71198 0.25376,-0.96522 0.62885,-2.0928 0.83352,-2.50574 0.22219,-0.44826 0.81768,-0.94593 1.47783,-1.23508 0.60813,-0.26636 1.51176,-0.52382 2.00807,-0.57213 0.90237,-0.0878 0.90237,-0.0878 1.79783,2.16113 0.4925,1.23692 0.94767,2.75238 1.01149,3.36768 0.0638,0.6153 0.002,1.41897 -0.13763,1.78594 -0.25368,0.66721 -0.25368,0.66721 2.89442,0.66721 3.1481,0 3.1481,0 2.37471,-0.7734 -0.42537,-0.42536 -0.7734,-0.97253 -0.7734,-1.21592 0,-0.24339 -0.22258,-0.75857 -0.49462,-1.14484 -0.27204,-0.38626 -0.73983,-1.18699 -1.03953,-1.77938 -0.2997,-0.5924 -1.03872,-2.61646 -1.64226,-4.49792 -0.60354,-1.88146 -1.19269,-3.65896 -1.30921,-3.95 -0.11653,-0.29104 -0.65838,-1.89838 -1.20413,-3.57187 -0.54574,-1.67349 -1.08765,-3.14733 -1.20426,-3.27519 -0.11801,-0.12942 -0.52945,0.0172 -0.92801,0.33072 -0.39381,0.30977 -0.99534,0.56322 -1.33675,0.56322 -0.46654,0 -0.65581,0.18074 -0.76196,0.7276 -0.0777,0.40018 -0.39602,1.50151 -0.70743,2.4474 -0.31142,0.94588 -0.83034,2.3151 -1.15316,3.04271 -0.32282,0.7276 -0.89141,2.27541 -1.26354,3.43958 -0.37213,1.16417 -0.75676,2.51668 -0.85473,3.00559 -0.098,0.48892 -0.47112,1.55144 -0.82923,2.36119 -0.3581,0.80973 -0.88155,1.76523 -1.16322,2.12331 -0.28167,0.35809 -0.51213,0.86722 -0.51213,1.1314 0,0.26419 0.20836,0.6017 0.46302,0.75002 0.25466,0.14833 1.37616,0.27331 2.49222,0.27774 2.02919,0.008 2.02919,0.008 1.76494,-0.94899 z m 17.70326,1.53984 c -0.5457,-0.0471 -0.99219,-0.19746 -0.99219,-0.3342 0,-0.13673 0.2249,-0.47351 0.49978,-0.74839 0.33227,-0.33227 0.55828,-1.06385 0.67434,-2.18281 0.096,-0.92567 0.28749,-2.51647 0.4255,-3.53512 0.13801,-1.01864 0.27185,-2.80458 0.29741,-3.96875 0.0256,-1.16416 -0.0276,-2.65245 -0.11822,-3.30729 -0.0906,-0.65484 -0.17069,-1.62248 -0.17801,-2.15031 -0.0133,-0.95969 -0.0133,-0.95969 -1.20392,-0.82549 -1.10627,0.1247 -1.19063,0.0909 -1.19063,-0.47707 0,-0.3362 0.48373,-1.35373 1.07495,-2.26117 1.07495,-1.6499 1.07495,-1.6499 3.50573,-1.54403 1.33693,0.0582 3.95642,0.16035 5.82109,0.22695 2.75784,0.0985 3.60892,0.22691 4.56221,0.68839 0.64455,0.31203 1.41087,0.9029 1.70292,1.31306 0.33747,0.47392 0.53102,1.16849 0.53102,1.9056 0,0.70358 -0.2342,1.58852 -0.59531,2.2495 -0.32743,0.59931 -1.03646,1.67312 -1.57564,2.38626 -0.53918,0.71314 -1.27358,1.45356 -1.632,1.64538 -0.65167,0.34876 -0.65167,0.34876 1.48945,3.5425 1.17762,1.75655 2.84475,3.85501 3.70475,4.66323 0.85999,0.80822 1.9108,1.61866 2.33514,1.80098 0.42434,0.18232 0.77152,0.43747 0.77152,0.56701 0,0.12953 -0.18833,0.30778 -0.41851,0.39611 -0.23018,0.0883 -1.94685,0.1606 -3.81482,0.1606 -1.86796,0 -3.58463,-0.0723 -3.81482,-0.1606 -0.23018,-0.0883 -0.41851,-0.31372 -0.41851,-0.50086 0,-0.18714 0.17644,-0.40797 0.3921,-0.49072 0.25794,-0.099 0.32583,-0.31235 0.19843,-0.62362 -0.10651,-0.26024 -0.8887,-1.51938 -1.73819,-2.79809 -0.84949,-1.27871 -1.74423,-2.88606 -1.98831,-3.57187 -0.24408,-0.68582 -0.53267,-1.38662 -0.64131,-1.55732 -0.10865,-0.17071 -0.54514,-0.38672 -0.96997,-0.48003 -0.42484,-0.0933 -0.91302,-0.33905 -1.08485,-0.54609 -0.1748,-0.21061 -0.2389,-0.66931 -0.14553,-1.04132 0.0918,-0.36569 0.32807,-0.6649 0.52508,-0.6649 0.19701,0 0.93888,-0.25248 1.6486,-0.56108 0.70973,-0.30859 1.6521,-0.83117 2.09418,-1.16128 0.606,-0.45252 0.79032,-0.78645 0.7491,-1.35715 -0.0301,-0.41632 -0.0643,-0.84067 -0.0762,-0.943 -0.0118,-0.10233 -0.57241,-0.42975 -1.24575,-0.7276 -0.77012,-0.34066 -1.78783,-0.54155 -2.74351,-0.54155 -1.51925,0 -1.51925,0 -1.66955,0.92618 -0.0827,0.5094 -0.0413,3.39667 0.0919,6.41615 0.13319,3.01948 0.35354,6.08267 0.48968,6.80709 0.17827,0.94863 0.476,1.52127 1.06415,2.04679 0.44915,0.40131 0.81663,0.8504 0.81663,0.99797 0,0.14758 -0.14882,0.27728 -0.33072,0.28823 -0.18191,0.011 -1.58089,0.0423 -3.10886,0.0696 -1.52797,0.0273 -3.22461,0.0112 -3.77031,-0.0359 z m 5.37088,-1.36257 c -0.62505,-0.66912 -0.75614,-1.09147 -0.92389,-2.97656 -0.10752,-1.20824 -0.2411,-4.63759 -0.29683,-7.62076 -0.0557,-2.98318 -0.005,-5.57808 0.11302,-5.76646 0.12622,-0.20166 0.96651,-0.39826 2.04356,-0.47811 1.63194,-0.12099 1.98612,-0.0555 3.2844,0.60708 1.45152,0.74081 1.45541,0.74612 1.53377,2.09089 0.0743,1.27466 0.0266,1.3878 -0.87344,2.07432 -0.5236,0.39937 -1.62631,1.00046 -2.45047,1.33576 -0.82416,0.33531 -1.53333,0.71424 -1.57594,0.84207 -0.0426,0.12783 0.42325,0.46786 1.03524,0.75562 0.96313,0.45287 1.17567,0.713 1.58114,1.93513 0.25764,0.77656 1.2461,2.57635 2.19657,3.99954 1.03531,1.55022 1.72813,2.86698 1.72813,3.28443 0,0.69681 0,0.69681 2.57969,0.67592 1.41883,-0.0115 2.43086,-0.0809 2.24896,-0.15434 -0.1819,-0.0734 -0.33154,-0.27236 -0.33252,-0.44213 -9.9e-4,-0.16977 -0.65503,-0.84446 -1.45342,-1.49931 -0.79838,-0.65484 -1.45242,-1.28044 -1.45341,-1.39022 -0.001,-0.10978 -0.79269,-1.35994 -1.75934,-2.77813 -0.96664,-1.41819 -1.91914,-2.76649 -2.11666,-2.99623 -0.19752,-0.22974 -0.35913,-0.60378 -0.35913,-0.83121 0,-0.22743 0.27319,-0.48207 0.60709,-0.56587 0.33389,-0.0838 1.23575,-0.93689 2.00412,-1.89574 0.76838,-0.95885 1.56676,-2.14952 1.77417,-2.64594 0.20742,-0.49642 0.37712,-1.21976 0.37712,-1.60744 0,-0.45907 -0.31417,-1.00116 -0.90098,-1.55459 -0.49554,-0.46736 -1.4201,-0.99508 -2.05457,-1.17272 -0.65451,-0.18325 -3.15926,-0.35104 -5.78953,-0.38783 -2.54977,-0.0357 -4.77296,-0.14953 -4.94043,-0.25303 -0.18449,-0.11402 -0.60837,0.25712 -1.07554,0.94174 -0.42408,0.62146 -0.90474,1.38439 -1.06814,1.69541 -0.28929,0.55065 -0.26922,0.55842 0.76409,0.29614 0.58366,-0.14815 1.13572,-0.19483 1.22681,-0.10374 0.0911,0.0911 0.27743,1.56518 0.4141,3.27574 0.17254,2.15961 0.15188,4.28262 -0.0676,6.94658 -0.17384,2.11005 -0.41576,4.37224 -0.5376,5.02708 -0.12184,0.65485 -0.30202,1.39899 -0.40041,1.65365 -0.16373,0.42376 0.068,0.46302 2.73369,0.46302 2.91258,0 2.91258,0 2.18418,-0.77976 z"
       id="path6493-9"
       sodipodi:insensitive="true" /></g></svg>
